%TF.GenerationSoftware,KiCad,Pcbnew,(7.0.0)*%
%TF.CreationDate,2023-03-09T16:04:36-06:00*%
%TF.ProjectId,RB-Macro16,52422d4d-6163-4726-9f31-362e6b696361,rev?*%
%TF.SameCoordinates,Original*%
%TF.FileFunction,Soldermask,Bot*%
%TF.FilePolarity,Negative*%
%FSLAX46Y46*%
G04 Gerber Fmt 4.6, Leading zero omitted, Abs format (unit mm)*
G04 Created by KiCad (PCBNEW (7.0.0)) date 2023-03-09 16:04:36*
%MOMM*%
%LPD*%
G01*
G04 APERTURE LIST*
G04 Aperture macros list*
%AMRoundRect*
0 Rectangle with rounded corners*
0 $1 Rounding radius*
0 $2 $3 $4 $5 $6 $7 $8 $9 X,Y pos of 4 corners*
0 Add a 4 corners polygon primitive as box body*
4,1,4,$2,$3,$4,$5,$6,$7,$8,$9,$2,$3,0*
0 Add four circle primitives for the rounded corners*
1,1,$1+$1,$2,$3*
1,1,$1+$1,$4,$5*
1,1,$1+$1,$6,$7*
1,1,$1+$1,$8,$9*
0 Add four rect primitives between the rounded corners*
20,1,$1+$1,$2,$3,$4,$5,0*
20,1,$1+$1,$4,$5,$6,$7,0*
20,1,$1+$1,$6,$7,$8,$9,0*
20,1,$1+$1,$8,$9,$2,$3,0*%
%AMHorizOval*
0 Thick line with rounded ends*
0 $1 width*
0 $2 $3 position (X,Y) of the first rounded end (center of the circle)*
0 $4 $5 position (X,Y) of the second rounded end (center of the circle)*
0 Add line between two ends*
20,1,$1,$2,$3,$4,$5,0*
0 Add two circle primitives to create the rounded ends*
1,1,$1,$2,$3*
1,1,$1,$4,$5*%
%AMRotRect*
0 Rectangle, with rotation*
0 The origin of the aperture is its center*
0 $1 length*
0 $2 width*
0 $3 Rotation angle, in degrees counterclockwise*
0 Add horizontal line*
21,1,$1,$2,0,0,$3*%
G04 Aperture macros list end*
%ADD10C,1.701800*%
%ADD11C,3.000000*%
%ADD12C,3.987800*%
%ADD13C,4.350000*%
%ADD14R,1.800000X0.820000*%
%ADD15R,2.550000X2.500000*%
%ADD16C,3.200000*%
%ADD17R,1.700000X1.700000*%
%ADD18C,1.700000*%
%ADD19R,2.000000X2.000000*%
%ADD20C,2.000000*%
%ADD21R,2.500000X3.000000*%
%ADD22RoundRect,0.225000X0.375000X-0.225000X0.375000X0.225000X-0.375000X0.225000X-0.375000X-0.225000X0*%
%ADD23C,1.600000*%
%ADD24HorizOval,1.600000X0.000000X0.000000X0.000000X0.000000X0*%
%ADD25RoundRect,0.250000X-0.097227X0.574524X-0.574524X0.097227X0.097227X-0.574524X0.574524X-0.097227X0*%
%ADD26R,1.800000X2.100000*%
%ADD27HorizOval,1.600000X0.000000X0.000000X0.000000X0.000000X0*%
%ADD28RoundRect,0.250000X-0.475000X0.337500X-0.475000X-0.337500X0.475000X-0.337500X0.475000X0.337500X0*%
%ADD29RoundRect,0.250000X0.475000X-0.337500X0.475000X0.337500X-0.475000X0.337500X-0.475000X-0.337500X0*%
%ADD30RotRect,1.500000X0.550000X135.000000*%
%ADD31RotRect,1.500000X0.550000X225.000000*%
%ADD32RoundRect,0.250000X0.574524X0.097227X0.097227X0.574524X-0.574524X-0.097227X-0.097227X-0.574524X0*%
%ADD33O,1.600000X1.600000*%
%ADD34RoundRect,0.250000X0.097227X-0.574524X0.574524X-0.097227X-0.097227X0.574524X-0.574524X0.097227X0*%
%ADD35C,0.650000*%
%ADD36O,0.950000X0.650000*%
%ADD37R,0.300000X0.700000*%
%ADD38O,0.800000X1.400000*%
%ADD39RoundRect,0.250000X-0.574524X-0.097227X-0.097227X-0.574524X0.574524X0.097227X0.097227X0.574524X0*%
G04 APERTURE END LIST*
D10*
%TO.C,KSW9*%
X56079590Y-126606150D03*
D11*
X57349590Y-124066150D03*
D12*
X61159590Y-126606150D03*
D13*
X61210390Y-131686150D03*
D11*
X63699590Y-121526150D03*
D10*
X66239590Y-126606150D03*
D14*
X58710389Y-131006149D03*
X58710389Y-132366149D03*
X63710389Y-132366149D03*
X63710389Y-131006149D03*
D15*
X67449589Y-121526149D03*
X53599589Y-124066149D03*
%TD*%
D10*
%TO.C,KSW16*%
X113229590Y-145656150D03*
D11*
X114499590Y-143116150D03*
D12*
X118309590Y-145656150D03*
D13*
X118360390Y-150736150D03*
D11*
X120849590Y-140576150D03*
D10*
X123389590Y-145656150D03*
D14*
X115860389Y-150056149D03*
X115860389Y-151416149D03*
X120860389Y-151416149D03*
X120860389Y-150056149D03*
D15*
X124599589Y-140576149D03*
X110749589Y-143116149D03*
%TD*%
D16*
%TO.C,REF\u002A\u002A*%
X48000000Y-153000000D03*
%TD*%
D10*
%TO.C,KSW7*%
X94179590Y-107556150D03*
D11*
X95449590Y-105016150D03*
D12*
X99259590Y-107556150D03*
D13*
X99310390Y-112636150D03*
D11*
X101799590Y-102476150D03*
D10*
X104339590Y-107556150D03*
D14*
X96810389Y-111956149D03*
X96810389Y-113316149D03*
X101810389Y-113316149D03*
X101810389Y-111956149D03*
D15*
X105549589Y-102476149D03*
X91699589Y-105016149D03*
%TD*%
D10*
%TO.C,KSW3*%
X94179590Y-88506150D03*
D11*
X95449590Y-85966150D03*
D12*
X99259590Y-88506150D03*
D13*
X99310390Y-93586150D03*
D11*
X101799590Y-83426150D03*
D10*
X104339590Y-88506150D03*
D14*
X96810389Y-92906149D03*
X96810389Y-94266149D03*
X101810389Y-94266149D03*
X101810389Y-92906149D03*
D15*
X105549589Y-83426149D03*
X91699589Y-85966149D03*
%TD*%
D10*
%TO.C,KSW15*%
X94179590Y-145656150D03*
D11*
X95449590Y-143116150D03*
D12*
X99259590Y-145656150D03*
D13*
X99310390Y-150736150D03*
D11*
X101799590Y-140576150D03*
D10*
X104339590Y-145656150D03*
D14*
X96810389Y-150056149D03*
X96810389Y-151416149D03*
X101810389Y-151416149D03*
X101810389Y-150056149D03*
D15*
X105549589Y-140576149D03*
X91699589Y-143116149D03*
%TD*%
D16*
%TO.C,REF\u002A\u002A*%
X142000000Y-153000000D03*
%TD*%
D17*
%TO.C,J2*%
X113769999Y-48009999D03*
D18*
X113770000Y-50550000D03*
X111230000Y-48010000D03*
X111230000Y-50550000D03*
X108690000Y-48010000D03*
X108690000Y-50550000D03*
%TD*%
D10*
%TO.C,KSW6*%
X75129590Y-107556150D03*
D11*
X76399590Y-105016150D03*
D12*
X80209590Y-107556150D03*
D13*
X80260390Y-112636150D03*
D11*
X82749590Y-102476150D03*
D10*
X85289590Y-107556150D03*
D14*
X77760389Y-111956149D03*
X77760389Y-113316149D03*
X82760389Y-113316149D03*
X82760389Y-111956149D03*
D15*
X86499589Y-102476149D03*
X72649589Y-105016149D03*
%TD*%
D10*
%TO.C,KSW14*%
X75129590Y-145656150D03*
D11*
X76399590Y-143116150D03*
D12*
X80209590Y-145656150D03*
D13*
X80260390Y-150736150D03*
D11*
X82749590Y-140576150D03*
D10*
X85289590Y-145656150D03*
D14*
X77760389Y-150056149D03*
X77760389Y-151416149D03*
X82760389Y-151416149D03*
X82760389Y-150056149D03*
D15*
X86499589Y-140576149D03*
X72649589Y-143116149D03*
%TD*%
D10*
%TO.C,KSW1*%
X56079590Y-88506150D03*
D11*
X57349590Y-85966150D03*
D12*
X61159590Y-88506150D03*
D13*
X61210390Y-93586150D03*
D11*
X63699590Y-83426150D03*
D10*
X66239590Y-88506150D03*
D14*
X58710389Y-92906149D03*
X58710389Y-94266149D03*
X63710389Y-94266149D03*
X63710389Y-92906149D03*
D15*
X67449589Y-83426149D03*
X53599589Y-85966149D03*
%TD*%
D10*
%TO.C,KSW2*%
X75129590Y-88506150D03*
D11*
X76399590Y-85966150D03*
D12*
X80209590Y-88506150D03*
D13*
X80260390Y-93586150D03*
D11*
X82749590Y-83426150D03*
D10*
X85289590Y-88506150D03*
D14*
X77760389Y-92906149D03*
X77760389Y-94266149D03*
X82760389Y-94266149D03*
X82760389Y-92906149D03*
D15*
X86499589Y-83426149D03*
X72649589Y-85966149D03*
%TD*%
D10*
%TO.C,KSW5*%
X56079590Y-107556150D03*
D11*
X57349590Y-105016150D03*
D12*
X61159590Y-107556150D03*
D13*
X61210390Y-112636150D03*
D11*
X63699590Y-102476150D03*
D10*
X66239590Y-107556150D03*
D14*
X58710389Y-111956149D03*
X58710389Y-113316149D03*
X63710389Y-113316149D03*
X63710389Y-111956149D03*
D15*
X67449589Y-102476149D03*
X53599589Y-105016149D03*
%TD*%
D19*
%TO.C,RSW1*%
X139859589Y-61956149D03*
D20*
X134859590Y-61956150D03*
X137359590Y-61956150D03*
D21*
X142959589Y-69456149D03*
X131759589Y-69456149D03*
D20*
X139859590Y-76456150D03*
X134859590Y-76456150D03*
%TD*%
D10*
%TO.C,KSW12*%
X113229590Y-126606150D03*
D11*
X114499590Y-124066150D03*
D12*
X118309590Y-126606150D03*
D13*
X118360390Y-131686150D03*
D11*
X120849590Y-121526150D03*
D10*
X123389590Y-126606150D03*
D14*
X115860389Y-131006149D03*
X115860389Y-132366149D03*
X120860389Y-132366149D03*
X120860389Y-131006149D03*
D15*
X124599589Y-121526149D03*
X110749589Y-124066149D03*
%TD*%
D10*
%TO.C,KSW10*%
X75129590Y-126606150D03*
D11*
X76399590Y-124066150D03*
D12*
X80209590Y-126606150D03*
D13*
X80260390Y-131686150D03*
D11*
X82749590Y-121526150D03*
D10*
X85289590Y-126606150D03*
D14*
X77760389Y-131006149D03*
X77760389Y-132366149D03*
X82760389Y-132366149D03*
X82760389Y-131006149D03*
D15*
X86499589Y-121526149D03*
X72649589Y-124066149D03*
%TD*%
D16*
%TO.C,REF\u002A\u002A*%
X142000000Y-43000000D03*
%TD*%
%TO.C,REF\u002A\u002A*%
X48000000Y-43000000D03*
%TD*%
D10*
%TO.C,KSW11*%
X94179590Y-126606150D03*
D11*
X95449590Y-124066150D03*
D12*
X99259590Y-126606150D03*
D13*
X99310390Y-131686150D03*
D11*
X101799590Y-121526150D03*
D10*
X104339590Y-126606150D03*
D14*
X96810389Y-131006149D03*
X96810389Y-132366149D03*
X101810389Y-132366149D03*
X101810389Y-131006149D03*
D15*
X105549589Y-121526149D03*
X91699589Y-124066149D03*
%TD*%
D10*
%TO.C,KSW8*%
X113229590Y-107556150D03*
D11*
X114499590Y-105016150D03*
D12*
X118309590Y-107556150D03*
D13*
X118360390Y-112636150D03*
D11*
X120849590Y-102476150D03*
D10*
X123389590Y-107556150D03*
D14*
X115860389Y-111956149D03*
X115860389Y-113316149D03*
X120860389Y-113316149D03*
X120860389Y-111956149D03*
D15*
X124599589Y-102476149D03*
X110749589Y-105016149D03*
%TD*%
D10*
%TO.C,KSW13*%
X56079590Y-145656150D03*
D11*
X57349590Y-143116150D03*
D12*
X61159590Y-145656150D03*
D13*
X61210390Y-150736150D03*
D11*
X63699590Y-140576150D03*
D10*
X66239590Y-145656150D03*
D14*
X58710389Y-150056149D03*
X58710389Y-151416149D03*
X63710389Y-151416149D03*
X63710389Y-150056149D03*
D15*
X67449589Y-140576149D03*
X53599589Y-143116149D03*
%TD*%
D10*
%TO.C,KSW4*%
X113229590Y-88506150D03*
D11*
X114499590Y-85966150D03*
D12*
X118309590Y-88506150D03*
D13*
X118360390Y-93586150D03*
D11*
X120849590Y-83426150D03*
D10*
X123389590Y-88506150D03*
D14*
X115860389Y-92906149D03*
X115860389Y-94266149D03*
X120860389Y-94266149D03*
X120860389Y-92906149D03*
D15*
X124599589Y-83426149D03*
X110749589Y-85966149D03*
%TD*%
D22*
%TO.C,D7*%
X90759590Y-111206150D03*
X90759590Y-107906150D03*
%TD*%
D23*
%TO.C,R2*%
X72295923Y-63194077D03*
D24*
X77684076Y-57805922D03*
%TD*%
D23*
%TO.C,R4*%
X65295923Y-56114077D03*
D24*
X70684076Y-50725922D03*
%TD*%
D25*
%TO.C,C24*%
X86753623Y-53206377D03*
X85286377Y-54673623D03*
%TD*%
D26*
%TO.C,X1*%
X107619999Y-71759999D03*
X107619999Y-68859999D03*
X109819999Y-68859999D03*
X109819999Y-71759999D03*
%TD*%
D20*
%TO.C,SW1*%
X107990000Y-64300000D03*
X114490000Y-64300000D03*
X107990000Y-59800000D03*
X114490000Y-59800000D03*
%TD*%
D22*
%TO.C,D17*%
X134862090Y-82906150D03*
X134862090Y-79606150D03*
%TD*%
D23*
%TO.C,R6*%
X95565923Y-46655923D03*
D27*
X100954076Y-52044076D03*
%TD*%
D22*
%TO.C,D13*%
X52659590Y-149306150D03*
X52659590Y-146006150D03*
%TD*%
%TO.C,D10*%
X71709590Y-130256150D03*
X71709590Y-126956150D03*
%TD*%
%TO.C,D16*%
X109809590Y-149306150D03*
X109809590Y-146006150D03*
%TD*%
D28*
%TO.C,C17*%
X103820000Y-71750000D03*
X103820000Y-73825000D03*
%TD*%
D22*
%TO.C,D4*%
X109809590Y-92156150D03*
X109809590Y-88856150D03*
%TD*%
%TO.C,D3*%
X90759590Y-92156150D03*
X90759590Y-88856150D03*
%TD*%
D28*
%TO.C,C22*%
X103820000Y-61815000D03*
X103820000Y-63890000D03*
%TD*%
D29*
%TO.C,C18*%
X103820000Y-68857500D03*
X103820000Y-66782500D03*
%TD*%
D30*
%TO.C,U1*%
X88567917Y-56821063D03*
X88002232Y-57386749D03*
X87436547Y-57952434D03*
X86870861Y-58518119D03*
X86305176Y-59083805D03*
X85739490Y-59649490D03*
X85173805Y-60215176D03*
X84608119Y-60780861D03*
X84042434Y-61346547D03*
X83476749Y-61912232D03*
X82911063Y-62477917D03*
D31*
X82911063Y-64882081D03*
X83476749Y-65447766D03*
X84042434Y-66013451D03*
X84608119Y-66579137D03*
X85173805Y-67144822D03*
X85739490Y-67710508D03*
X86305176Y-68276193D03*
X86870861Y-68841879D03*
X87436547Y-69407564D03*
X88002232Y-69973249D03*
X88567917Y-70538935D03*
D30*
X90972081Y-70538935D03*
X91537766Y-69973249D03*
X92103451Y-69407564D03*
X92669137Y-68841879D03*
X93234822Y-68276193D03*
X93800508Y-67710508D03*
X94366193Y-67144822D03*
X94931879Y-66579137D03*
X95497564Y-66013451D03*
X96063249Y-65447766D03*
X96628935Y-64882081D03*
D31*
X96628935Y-62477917D03*
X96063249Y-61912232D03*
X95497564Y-61346547D03*
X94931879Y-60780861D03*
X94366193Y-60215176D03*
X93800508Y-59649490D03*
X93234822Y-59083805D03*
X92669137Y-58518119D03*
X92103451Y-57952434D03*
X91537766Y-57386749D03*
X90972081Y-56821063D03*
%TD*%
D22*
%TO.C,D12*%
X109809590Y-130256150D03*
X109809590Y-126956150D03*
%TD*%
D23*
%TO.C,R3*%
X67525923Y-58374077D03*
D24*
X72914076Y-52985922D03*
%TD*%
D22*
%TO.C,D5*%
X52659590Y-111206150D03*
X52659590Y-107906150D03*
%TD*%
D32*
%TO.C,C21*%
X94043623Y-52033623D03*
X92576377Y-50566377D03*
%TD*%
D23*
%TO.C,R1*%
X114680000Y-56390000D03*
D33*
X107059999Y-56389999D03*
%TD*%
D34*
%TO.C,C20*%
X78336377Y-61073623D03*
X79803623Y-59606377D03*
%TD*%
D35*
%TO.C,J1*%
X55159590Y-47566150D03*
D36*
X62359589Y-47566149D03*
D37*
X56009589Y-48226149D03*
X56509589Y-48226149D03*
X57009589Y-48226149D03*
X57509589Y-48226149D03*
X58009589Y-48226149D03*
X58509589Y-48226149D03*
X59009589Y-48226149D03*
X59509589Y-48226149D03*
X60009589Y-48226149D03*
X60509589Y-48226149D03*
X61009589Y-48226149D03*
X61509589Y-48226149D03*
X61259589Y-46526149D03*
X60759589Y-46526149D03*
X60259589Y-46526149D03*
X59759589Y-46526149D03*
X59259589Y-46526149D03*
X58759589Y-46526149D03*
X58259589Y-46526149D03*
X57759589Y-46526149D03*
X57259589Y-46526149D03*
X56759589Y-46526149D03*
X56259589Y-46526149D03*
X55759589Y-46526149D03*
D38*
X54269589Y-40366149D03*
X54629589Y-46316149D03*
X62889589Y-46316149D03*
X63249589Y-40366149D03*
%TD*%
D22*
%TO.C,D2*%
X71709590Y-92156150D03*
X71709590Y-88856150D03*
%TD*%
D23*
%TO.C,R5*%
X97781846Y-44421846D03*
D27*
X103169999Y-49809999D03*
%TD*%
D22*
%TO.C,D11*%
X90759590Y-130256150D03*
X90759590Y-126956150D03*
%TD*%
%TO.C,D1*%
X52659590Y-92156150D03*
X52659590Y-88856150D03*
%TD*%
%TO.C,D15*%
X90759590Y-149306150D03*
X90759590Y-146006150D03*
%TD*%
%TO.C,D14*%
X71709590Y-149306150D03*
X71709590Y-146006150D03*
%TD*%
%TO.C,D9*%
X52659590Y-130256150D03*
X52659590Y-126956150D03*
%TD*%
D32*
%TO.C,C19*%
X97703623Y-55613623D03*
X96236377Y-54146377D03*
%TD*%
D39*
%TO.C,C23*%
X84336377Y-71856377D03*
X85803623Y-73323623D03*
%TD*%
D22*
%TO.C,D8*%
X109809590Y-111206150D03*
X109809590Y-107906150D03*
%TD*%
%TO.C,D6*%
X71709590Y-111206150D03*
X71709590Y-107906150D03*
%TD*%
M02*
