M48
; DRILL file {KiCad (7.0.0)} date Thu Mar  9 16:04:33 2023
; FORMAT={-:-/ absolute / inch / decimal}
; #@! TF.CreationDate,2023-03-09T16:04:33-06:00
; #@! TF.GenerationSoftware,Kicad,Pcbnew,(7.0.0)
; #@! TF.FileFunction,NonPlated,1,2,NPTH
FMAT,2
INCH
; #@! TA.AperFunction,NonPlated,NPTH,ComponentDrill
T1C0.0256
; #@! TA.AperFunction,NonPlated,NPTH,ComponentDrill
T2C0.0670
; #@! TA.AperFunction,NonPlated,NPTH,ComponentDrill
T3C0.1181
; #@! TA.AperFunction,NonPlated,NPTH,ComponentDrill
T4C0.1260
; #@! TA.AperFunction,NonPlated,NPTH,ComponentDrill
T5C0.1570
; #@! TA.AperFunction,NonPlated,NPTH,ComponentDrill
T6C0.1713
%
G90
G05
T1
X2.1716Y-1.8727
T2
X2.2079Y-3.4845
X2.2079Y-4.2345
X2.2079Y-4.9845
X2.2079Y-5.7345
X2.6079Y-3.4845
X2.6079Y-4.2345
X2.6079Y-4.9845
X2.6079Y-5.7345
X2.9579Y-3.4845
X2.9579Y-4.2345
X2.9579Y-4.9845
X2.9579Y-5.7345
X3.3579Y-3.4845
X3.3579Y-4.2345
X3.3579Y-4.9845
X3.3579Y-5.7345
X3.7079Y-3.4845
X3.7079Y-4.2345
X3.7079Y-4.9845
X3.7079Y-5.7345
X4.1079Y-3.4845
X4.1079Y-4.2345
X4.1079Y-4.9845
X4.1079Y-5.7345
X4.4579Y-3.4845
X4.4579Y-4.2345
X4.4579Y-4.9845
X4.4579Y-5.7345
X4.8579Y-3.4845
X4.8579Y-4.2345
X4.8579Y-4.9845
X4.8579Y-5.7345
T3
X2.2579Y-3.3845
X2.2579Y-4.1345
X2.2579Y-4.8845
X2.2579Y-5.6345
X2.5079Y-3.2845
X2.5079Y-4.0345
X2.5079Y-4.7845
X2.5079Y-5.5345
X3.0079Y-3.3845
X3.0079Y-4.1345
X3.0079Y-4.8845
X3.0079Y-5.6345
X3.2579Y-3.2845
X3.2579Y-4.0345
X3.2579Y-4.7845
X3.2579Y-5.5345
X3.7579Y-3.3845
X3.7579Y-4.1345
X3.7579Y-4.8845
X3.7579Y-5.6345
X4.0079Y-3.2845
X4.0079Y-4.0345
X4.0079Y-4.7845
X4.0079Y-5.5345
X4.5079Y-3.3845
X4.5079Y-4.1345
X4.5079Y-4.8845
X4.5079Y-5.6345
X4.7579Y-3.2845
X4.7579Y-4.0345
X4.7579Y-4.7845
X4.7579Y-5.5345
T4
X1.8898Y-1.6929
X1.8898Y-6.0236
X5.5906Y-1.6929
X5.5906Y-6.0236
T5
X2.4079Y-3.4845
X2.4079Y-4.2345
X2.4079Y-4.9845
X2.4079Y-5.7345
X3.1579Y-3.4845
X3.1579Y-4.2345
X3.1579Y-4.9845
X3.1579Y-5.7345
X3.9079Y-3.4845
X3.9079Y-4.2345
X3.9079Y-4.9845
X3.9079Y-5.7345
X4.6579Y-3.4845
X4.6579Y-4.2345
X4.6579Y-4.9845
X4.6579Y-5.7345
T6
X2.4099Y-3.6845
X2.4099Y-4.4345
X2.4099Y-5.1845
X2.4099Y-5.9345
X3.1599Y-3.6845
X3.1599Y-4.4345
X3.1599Y-5.1845
X3.1599Y-5.9345
X3.9099Y-3.6845
X3.9099Y-4.4345
X3.9099Y-5.1845
X3.9099Y-5.9345
X4.6599Y-3.6845
X4.6599Y-4.4345
X4.6599Y-5.1845
X4.6599Y-5.9345
T1
G00X2.4492Y-1.8727
M15
G01X2.461Y-1.8727
M16
G05
T0
M30
