M48
; DRILL file {KiCad (7.0.0)} date Thu Mar  9 16:04:33 2023
; FORMAT={-:-/ absolute / inch / decimal}
; #@! TF.CreationDate,2023-03-09T16:04:33-06:00
; #@! TF.GenerationSoftware,Kicad,Pcbnew,(7.0.0)
; #@! TF.FileFunction,Plated,1,2,PTH
FMAT,2
INCH
; #@! TA.AperFunction,Plated,PTH,ViaDrill
T1C0.0157
; #@! TA.AperFunction,Plated,PTH,ComponentDrill
T2C0.0197
; #@! TA.AperFunction,Plated,PTH,ComponentDrill
T3C0.0315
; #@! TA.AperFunction,Plated,PTH,ComponentDrill
T4C0.0394
; #@! TA.AperFunction,Plated,PTH,ComponentDrill
T5C0.0400
; #@! TA.AperFunction,Plated,PTH,ComponentDrill
T6C0.0433
; #@! TA.AperFunction,Plated,PTH,ComponentDrill
T7C0.0787
%
G90
G05
T1
X2.2061Y-3.7216
X2.2061Y-4.4716
X2.2061Y-5.2216
X2.2061Y-5.9716
X2.2401Y-1.9506
X2.2748Y-1.7873
X2.3063Y-1.7609
X2.3228Y-1.9794
X2.3425Y-1.7786
X2.3626Y-1.9506
X2.4701Y-2.5518
X2.5427Y-3.6015
X2.5427Y-4.3515
X2.5427Y-5.1015
X2.5427Y-5.8515
X2.582Y-3.07
X2.582Y-3.82
X2.582Y-4.57
X2.582Y-5.32
X2.5829Y-3.7113
X2.5829Y-4.4613
X2.5829Y-5.2113
X2.5829Y-5.9613
X2.6214Y-3.3673
X2.6214Y-4.1173
X2.6214Y-4.8673
X2.6214Y-5.6173
X2.6608Y-3.0401
X2.9561Y-3.7216
X2.9561Y-4.4716
X2.9561Y-5.2216
X2.9561Y-5.9716
X3.026Y-2.4609
X3.309Y-2.5046
X3.3329Y-3.7113
X3.3329Y-4.4613
X3.3329Y-5.2113
X3.3329Y-5.9613
X3.3532Y-2.5042
X3.3714Y-3.3673
X3.3714Y-4.1173
X3.3714Y-4.8673
X3.3714Y-5.6173
X3.3886Y-2.7928
X3.4108Y-3.07
X3.5346Y-2.6849
X3.5346Y-2.7294
X3.5561Y-2.3056
X3.672Y-2.414
X3.7061Y-3.7216
X3.7061Y-4.4716
X3.7061Y-5.2216
X3.7061Y-5.9716
X3.7177Y-2.5577
X3.8508Y-2.413
X4.0829Y-3.7113
X4.0829Y-4.4613
X4.0829Y-5.2113
X4.0829Y-5.9613
X4.1214Y-3.3673
X4.1214Y-4.1173
X4.1214Y-4.8673
X4.1214Y-5.6173
X4.1608Y-3.07
X4.4561Y-4.4716
X4.4561Y-5.2216
X4.4561Y-5.9716
X4.4584Y-3.7239
X4.8329Y-3.7113
X4.8329Y-4.4613
X4.8329Y-5.2113
X4.8329Y-5.9613
X4.8714Y-3.3673
X4.8714Y-4.1173
X4.8714Y-4.8673
X4.8714Y-5.6173
X4.9108Y-3.07
T3
X2.5707Y-2.2092
X2.6585Y-2.2982
X2.7828Y-1.9971
X2.8463Y-2.488
X2.8706Y-2.0861
X3.0584Y-2.2758
X3.7624Y-1.8368
X3.8497Y-1.7489
X3.9746Y-2.049
X4.0618Y-1.961
X4.215Y-2.2201
X4.515Y-2.2201
T4
X5.3094Y-2.4392
X5.3094Y-3.0101
X5.4079Y-2.4392
X5.5063Y-2.4392
X5.5063Y-3.0101
T5
X4.2791Y-1.8902
X4.2791Y-1.9902
X4.3791Y-1.8902
X4.3791Y-1.9902
X4.4791Y-1.8902
X4.4791Y-1.9902
T6
X4.2516Y-2.3543
X4.2516Y-2.5315
X4.5075Y-2.3543
X4.5075Y-2.5315
T2
G00X2.1366Y-1.5774
M15
G01X2.1366Y-1.601
M16
G05
G00X2.1508Y-1.8117
M15
G01X2.1508Y-1.8353
M16
G05
G00X2.476Y-1.8117
M15
G01X2.476Y-1.8353
M16
G05
G00X2.4901Y-1.5774
M15
G01X2.4901Y-1.601
M16
G05
T7
G00X5.1874Y-2.7247
M15
G01X5.1874Y-2.7443
M16
G05
G00X5.6283Y-2.7247
M15
G01X5.6283Y-2.7443
M16
G05
T0
M30
