%TF.GenerationSoftware,KiCad,Pcbnew,(7.0.0)*%
%TF.CreationDate,2023-03-09T16:04:36-06:00*%
%TF.ProjectId,RB-Macro16,52422d4d-6163-4726-9f31-362e6b696361,rev?*%
%TF.SameCoordinates,Original*%
%TF.FileFunction,Legend,Top*%
%TF.FilePolarity,Positive*%
%FSLAX46Y46*%
G04 Gerber Fmt 4.6, Leading zero omitted, Abs format (unit mm)*
G04 Created by KiCad (PCBNEW (7.0.0)) date 2023-03-09 16:04:36*
%MOMM*%
%LPD*%
G01*
G04 APERTURE LIST*
%ADD10C,0.150000*%
%ADD11C,0.100000*%
%ADD12C,0.120000*%
%ADD13C,0.203200*%
%ADD14C,0.200000*%
%ADD15R,1.700000X1.700000*%
%ADD16C,1.700000*%
G04 APERTURE END LIST*
D10*
%TO.C,C14*%
X82927142Y-154902142D02*
X82879523Y-154949761D01*
X82879523Y-154949761D02*
X82736666Y-154997380D01*
X82736666Y-154997380D02*
X82641428Y-154997380D01*
X82641428Y-154997380D02*
X82498571Y-154949761D01*
X82498571Y-154949761D02*
X82403333Y-154854523D01*
X82403333Y-154854523D02*
X82355714Y-154759285D01*
X82355714Y-154759285D02*
X82308095Y-154568809D01*
X82308095Y-154568809D02*
X82308095Y-154425952D01*
X82308095Y-154425952D02*
X82355714Y-154235476D01*
X82355714Y-154235476D02*
X82403333Y-154140238D01*
X82403333Y-154140238D02*
X82498571Y-154045000D01*
X82498571Y-154045000D02*
X82641428Y-153997380D01*
X82641428Y-153997380D02*
X82736666Y-153997380D01*
X82736666Y-153997380D02*
X82879523Y-154045000D01*
X82879523Y-154045000D02*
X82927142Y-154092619D01*
X83879523Y-154997380D02*
X83308095Y-154997380D01*
X83593809Y-154997380D02*
X83593809Y-153997380D01*
X83593809Y-153997380D02*
X83498571Y-154140238D01*
X83498571Y-154140238D02*
X83403333Y-154235476D01*
X83403333Y-154235476D02*
X83308095Y-154283095D01*
X84736666Y-154330714D02*
X84736666Y-154997380D01*
X84498571Y-153949761D02*
X84260476Y-154664047D01*
X84260476Y-154664047D02*
X84879523Y-154664047D01*
D11*
%TO.C,KSW9*%
X59373876Y-118473530D02*
X59373876Y-117473530D01*
X59945304Y-118473530D02*
X59516733Y-117902102D01*
X59945304Y-117473530D02*
X59373876Y-118044959D01*
X60326257Y-118425911D02*
X60469114Y-118473530D01*
X60469114Y-118473530D02*
X60707209Y-118473530D01*
X60707209Y-118473530D02*
X60802447Y-118425911D01*
X60802447Y-118425911D02*
X60850066Y-118378292D01*
X60850066Y-118378292D02*
X60897685Y-118283054D01*
X60897685Y-118283054D02*
X60897685Y-118187816D01*
X60897685Y-118187816D02*
X60850066Y-118092578D01*
X60850066Y-118092578D02*
X60802447Y-118044959D01*
X60802447Y-118044959D02*
X60707209Y-117997340D01*
X60707209Y-117997340D02*
X60516733Y-117949721D01*
X60516733Y-117949721D02*
X60421495Y-117902102D01*
X60421495Y-117902102D02*
X60373876Y-117854483D01*
X60373876Y-117854483D02*
X60326257Y-117759245D01*
X60326257Y-117759245D02*
X60326257Y-117664007D01*
X60326257Y-117664007D02*
X60373876Y-117568769D01*
X60373876Y-117568769D02*
X60421495Y-117521150D01*
X60421495Y-117521150D02*
X60516733Y-117473530D01*
X60516733Y-117473530D02*
X60754828Y-117473530D01*
X60754828Y-117473530D02*
X60897685Y-117521150D01*
X61231019Y-117473530D02*
X61469114Y-118473530D01*
X61469114Y-118473530D02*
X61659590Y-117759245D01*
X61659590Y-117759245D02*
X61850066Y-118473530D01*
X61850066Y-118473530D02*
X62088162Y-117473530D01*
X62516733Y-118473530D02*
X62707209Y-118473530D01*
X62707209Y-118473530D02*
X62802447Y-118425911D01*
X62802447Y-118425911D02*
X62850066Y-118378292D01*
X62850066Y-118378292D02*
X62945304Y-118235435D01*
X62945304Y-118235435D02*
X62992923Y-118044959D01*
X62992923Y-118044959D02*
X62992923Y-117664007D01*
X62992923Y-117664007D02*
X62945304Y-117568769D01*
X62945304Y-117568769D02*
X62897685Y-117521150D01*
X62897685Y-117521150D02*
X62802447Y-117473530D01*
X62802447Y-117473530D02*
X62611971Y-117473530D01*
X62611971Y-117473530D02*
X62516733Y-117521150D01*
X62516733Y-117521150D02*
X62469114Y-117568769D01*
X62469114Y-117568769D02*
X62421495Y-117664007D01*
X62421495Y-117664007D02*
X62421495Y-117902102D01*
X62421495Y-117902102D02*
X62469114Y-117997340D01*
X62469114Y-117997340D02*
X62516733Y-118044959D01*
X62516733Y-118044959D02*
X62611971Y-118092578D01*
X62611971Y-118092578D02*
X62802447Y-118092578D01*
X62802447Y-118092578D02*
X62897685Y-118044959D01*
X62897685Y-118044959D02*
X62945304Y-117997340D01*
X62945304Y-117997340D02*
X62992923Y-117902102D01*
D10*
%TO.C,C8*%
X120975017Y-116780630D02*
X120927398Y-116828249D01*
X120927398Y-116828249D02*
X120784541Y-116875868D01*
X120784541Y-116875868D02*
X120689303Y-116875868D01*
X120689303Y-116875868D02*
X120546446Y-116828249D01*
X120546446Y-116828249D02*
X120451208Y-116733011D01*
X120451208Y-116733011D02*
X120403589Y-116637773D01*
X120403589Y-116637773D02*
X120355970Y-116447297D01*
X120355970Y-116447297D02*
X120355970Y-116304440D01*
X120355970Y-116304440D02*
X120403589Y-116113964D01*
X120403589Y-116113964D02*
X120451208Y-116018726D01*
X120451208Y-116018726D02*
X120546446Y-115923488D01*
X120546446Y-115923488D02*
X120689303Y-115875868D01*
X120689303Y-115875868D02*
X120784541Y-115875868D01*
X120784541Y-115875868D02*
X120927398Y-115923488D01*
X120927398Y-115923488D02*
X120975017Y-115971107D01*
X121546446Y-116304440D02*
X121451208Y-116256821D01*
X121451208Y-116256821D02*
X121403589Y-116209202D01*
X121403589Y-116209202D02*
X121355970Y-116113964D01*
X121355970Y-116113964D02*
X121355970Y-116066345D01*
X121355970Y-116066345D02*
X121403589Y-115971107D01*
X121403589Y-115971107D02*
X121451208Y-115923488D01*
X121451208Y-115923488D02*
X121546446Y-115875868D01*
X121546446Y-115875868D02*
X121736922Y-115875868D01*
X121736922Y-115875868D02*
X121832160Y-115923488D01*
X121832160Y-115923488D02*
X121879779Y-115971107D01*
X121879779Y-115971107D02*
X121927398Y-116066345D01*
X121927398Y-116066345D02*
X121927398Y-116113964D01*
X121927398Y-116113964D02*
X121879779Y-116209202D01*
X121879779Y-116209202D02*
X121832160Y-116256821D01*
X121832160Y-116256821D02*
X121736922Y-116304440D01*
X121736922Y-116304440D02*
X121546446Y-116304440D01*
X121546446Y-116304440D02*
X121451208Y-116352059D01*
X121451208Y-116352059D02*
X121403589Y-116399678D01*
X121403589Y-116399678D02*
X121355970Y-116494916D01*
X121355970Y-116494916D02*
X121355970Y-116685392D01*
X121355970Y-116685392D02*
X121403589Y-116780630D01*
X121403589Y-116780630D02*
X121451208Y-116828249D01*
X121451208Y-116828249D02*
X121546446Y-116875868D01*
X121546446Y-116875868D02*
X121736922Y-116875868D01*
X121736922Y-116875868D02*
X121832160Y-116828249D01*
X121832160Y-116828249D02*
X121879779Y-116780630D01*
X121879779Y-116780630D02*
X121927398Y-116685392D01*
X121927398Y-116685392D02*
X121927398Y-116494916D01*
X121927398Y-116494916D02*
X121879779Y-116399678D01*
X121879779Y-116399678D02*
X121832160Y-116352059D01*
X121832160Y-116352059D02*
X121736922Y-116304440D01*
%TO.C,C3*%
X101925033Y-97730646D02*
X101877414Y-97778265D01*
X101877414Y-97778265D02*
X101734557Y-97825884D01*
X101734557Y-97825884D02*
X101639319Y-97825884D01*
X101639319Y-97825884D02*
X101496462Y-97778265D01*
X101496462Y-97778265D02*
X101401224Y-97683027D01*
X101401224Y-97683027D02*
X101353605Y-97587789D01*
X101353605Y-97587789D02*
X101305986Y-97397313D01*
X101305986Y-97397313D02*
X101305986Y-97254456D01*
X101305986Y-97254456D02*
X101353605Y-97063980D01*
X101353605Y-97063980D02*
X101401224Y-96968742D01*
X101401224Y-96968742D02*
X101496462Y-96873504D01*
X101496462Y-96873504D02*
X101639319Y-96825884D01*
X101639319Y-96825884D02*
X101734557Y-96825884D01*
X101734557Y-96825884D02*
X101877414Y-96873504D01*
X101877414Y-96873504D02*
X101925033Y-96921123D01*
X102258367Y-96825884D02*
X102877414Y-96825884D01*
X102877414Y-96825884D02*
X102544081Y-97206837D01*
X102544081Y-97206837D02*
X102686938Y-97206837D01*
X102686938Y-97206837D02*
X102782176Y-97254456D01*
X102782176Y-97254456D02*
X102829795Y-97302075D01*
X102829795Y-97302075D02*
X102877414Y-97397313D01*
X102877414Y-97397313D02*
X102877414Y-97635408D01*
X102877414Y-97635408D02*
X102829795Y-97730646D01*
X102829795Y-97730646D02*
X102782176Y-97778265D01*
X102782176Y-97778265D02*
X102686938Y-97825884D01*
X102686938Y-97825884D02*
X102401224Y-97825884D01*
X102401224Y-97825884D02*
X102305986Y-97778265D01*
X102305986Y-97778265D02*
X102258367Y-97730646D01*
D11*
%TO.C,KSW16*%
X116047685Y-137523530D02*
X116047685Y-136523530D01*
X116619113Y-137523530D02*
X116190542Y-136952102D01*
X116619113Y-136523530D02*
X116047685Y-137094959D01*
X117000066Y-137475911D02*
X117142923Y-137523530D01*
X117142923Y-137523530D02*
X117381018Y-137523530D01*
X117381018Y-137523530D02*
X117476256Y-137475911D01*
X117476256Y-137475911D02*
X117523875Y-137428292D01*
X117523875Y-137428292D02*
X117571494Y-137333054D01*
X117571494Y-137333054D02*
X117571494Y-137237816D01*
X117571494Y-137237816D02*
X117523875Y-137142578D01*
X117523875Y-137142578D02*
X117476256Y-137094959D01*
X117476256Y-137094959D02*
X117381018Y-137047340D01*
X117381018Y-137047340D02*
X117190542Y-136999721D01*
X117190542Y-136999721D02*
X117095304Y-136952102D01*
X117095304Y-136952102D02*
X117047685Y-136904483D01*
X117047685Y-136904483D02*
X117000066Y-136809245D01*
X117000066Y-136809245D02*
X117000066Y-136714007D01*
X117000066Y-136714007D02*
X117047685Y-136618769D01*
X117047685Y-136618769D02*
X117095304Y-136571150D01*
X117095304Y-136571150D02*
X117190542Y-136523530D01*
X117190542Y-136523530D02*
X117428637Y-136523530D01*
X117428637Y-136523530D02*
X117571494Y-136571150D01*
X117904828Y-136523530D02*
X118142923Y-137523530D01*
X118142923Y-137523530D02*
X118333399Y-136809245D01*
X118333399Y-136809245D02*
X118523875Y-137523530D01*
X118523875Y-137523530D02*
X118761971Y-136523530D01*
X119666732Y-137523530D02*
X119095304Y-137523530D01*
X119381018Y-137523530D02*
X119381018Y-136523530D01*
X119381018Y-136523530D02*
X119285780Y-136666388D01*
X119285780Y-136666388D02*
X119190542Y-136761626D01*
X119190542Y-136761626D02*
X119095304Y-136809245D01*
X120523875Y-136523530D02*
X120333399Y-136523530D01*
X120333399Y-136523530D02*
X120238161Y-136571150D01*
X120238161Y-136571150D02*
X120190542Y-136618769D01*
X120190542Y-136618769D02*
X120095304Y-136761626D01*
X120095304Y-136761626D02*
X120047685Y-136952102D01*
X120047685Y-136952102D02*
X120047685Y-137333054D01*
X120047685Y-137333054D02*
X120095304Y-137428292D01*
X120095304Y-137428292D02*
X120142923Y-137475911D01*
X120142923Y-137475911D02*
X120238161Y-137523530D01*
X120238161Y-137523530D02*
X120428637Y-137523530D01*
X120428637Y-137523530D02*
X120523875Y-137475911D01*
X120523875Y-137475911D02*
X120571494Y-137428292D01*
X120571494Y-137428292D02*
X120619113Y-137333054D01*
X120619113Y-137333054D02*
X120619113Y-137094959D01*
X120619113Y-137094959D02*
X120571494Y-136999721D01*
X120571494Y-136999721D02*
X120523875Y-136952102D01*
X120523875Y-136952102D02*
X120428637Y-136904483D01*
X120428637Y-136904483D02*
X120238161Y-136904483D01*
X120238161Y-136904483D02*
X120142923Y-136952102D01*
X120142923Y-136952102D02*
X120095304Y-136999721D01*
X120095304Y-136999721D02*
X120047685Y-137094959D01*
D10*
%TO.C,C4*%
X120975017Y-97730646D02*
X120927398Y-97778265D01*
X120927398Y-97778265D02*
X120784541Y-97825884D01*
X120784541Y-97825884D02*
X120689303Y-97825884D01*
X120689303Y-97825884D02*
X120546446Y-97778265D01*
X120546446Y-97778265D02*
X120451208Y-97683027D01*
X120451208Y-97683027D02*
X120403589Y-97587789D01*
X120403589Y-97587789D02*
X120355970Y-97397313D01*
X120355970Y-97397313D02*
X120355970Y-97254456D01*
X120355970Y-97254456D02*
X120403589Y-97063980D01*
X120403589Y-97063980D02*
X120451208Y-96968742D01*
X120451208Y-96968742D02*
X120546446Y-96873504D01*
X120546446Y-96873504D02*
X120689303Y-96825884D01*
X120689303Y-96825884D02*
X120784541Y-96825884D01*
X120784541Y-96825884D02*
X120927398Y-96873504D01*
X120927398Y-96873504D02*
X120975017Y-96921123D01*
X121832160Y-97159218D02*
X121832160Y-97825884D01*
X121594065Y-96778265D02*
X121355970Y-97492551D01*
X121355970Y-97492551D02*
X121975017Y-97492551D01*
D11*
%TO.C,KSW7*%
X97473876Y-99423530D02*
X97473876Y-98423530D01*
X98045304Y-99423530D02*
X97616733Y-98852102D01*
X98045304Y-98423530D02*
X97473876Y-98994959D01*
X98426257Y-99375911D02*
X98569114Y-99423530D01*
X98569114Y-99423530D02*
X98807209Y-99423530D01*
X98807209Y-99423530D02*
X98902447Y-99375911D01*
X98902447Y-99375911D02*
X98950066Y-99328292D01*
X98950066Y-99328292D02*
X98997685Y-99233054D01*
X98997685Y-99233054D02*
X98997685Y-99137816D01*
X98997685Y-99137816D02*
X98950066Y-99042578D01*
X98950066Y-99042578D02*
X98902447Y-98994959D01*
X98902447Y-98994959D02*
X98807209Y-98947340D01*
X98807209Y-98947340D02*
X98616733Y-98899721D01*
X98616733Y-98899721D02*
X98521495Y-98852102D01*
X98521495Y-98852102D02*
X98473876Y-98804483D01*
X98473876Y-98804483D02*
X98426257Y-98709245D01*
X98426257Y-98709245D02*
X98426257Y-98614007D01*
X98426257Y-98614007D02*
X98473876Y-98518769D01*
X98473876Y-98518769D02*
X98521495Y-98471150D01*
X98521495Y-98471150D02*
X98616733Y-98423530D01*
X98616733Y-98423530D02*
X98854828Y-98423530D01*
X98854828Y-98423530D02*
X98997685Y-98471150D01*
X99331019Y-98423530D02*
X99569114Y-99423530D01*
X99569114Y-99423530D02*
X99759590Y-98709245D01*
X99759590Y-98709245D02*
X99950066Y-99423530D01*
X99950066Y-99423530D02*
X100188162Y-98423530D01*
X100473876Y-98423530D02*
X101140542Y-98423530D01*
X101140542Y-98423530D02*
X100711971Y-99423530D01*
D10*
%TO.C,C6*%
X82869873Y-116773862D02*
X82822254Y-116821481D01*
X82822254Y-116821481D02*
X82679397Y-116869100D01*
X82679397Y-116869100D02*
X82584159Y-116869100D01*
X82584159Y-116869100D02*
X82441302Y-116821481D01*
X82441302Y-116821481D02*
X82346064Y-116726243D01*
X82346064Y-116726243D02*
X82298445Y-116631005D01*
X82298445Y-116631005D02*
X82250826Y-116440529D01*
X82250826Y-116440529D02*
X82250826Y-116297672D01*
X82250826Y-116297672D02*
X82298445Y-116107196D01*
X82298445Y-116107196D02*
X82346064Y-116011958D01*
X82346064Y-116011958D02*
X82441302Y-115916720D01*
X82441302Y-115916720D02*
X82584159Y-115869100D01*
X82584159Y-115869100D02*
X82679397Y-115869100D01*
X82679397Y-115869100D02*
X82822254Y-115916720D01*
X82822254Y-115916720D02*
X82869873Y-115964339D01*
X83727016Y-115869100D02*
X83536540Y-115869100D01*
X83536540Y-115869100D02*
X83441302Y-115916720D01*
X83441302Y-115916720D02*
X83393683Y-115964339D01*
X83393683Y-115964339D02*
X83298445Y-116107196D01*
X83298445Y-116107196D02*
X83250826Y-116297672D01*
X83250826Y-116297672D02*
X83250826Y-116678624D01*
X83250826Y-116678624D02*
X83298445Y-116773862D01*
X83298445Y-116773862D02*
X83346064Y-116821481D01*
X83346064Y-116821481D02*
X83441302Y-116869100D01*
X83441302Y-116869100D02*
X83631778Y-116869100D01*
X83631778Y-116869100D02*
X83727016Y-116821481D01*
X83727016Y-116821481D02*
X83774635Y-116773862D01*
X83774635Y-116773862D02*
X83822254Y-116678624D01*
X83822254Y-116678624D02*
X83822254Y-116440529D01*
X83822254Y-116440529D02*
X83774635Y-116345291D01*
X83774635Y-116345291D02*
X83727016Y-116297672D01*
X83727016Y-116297672D02*
X83631778Y-116250053D01*
X83631778Y-116250053D02*
X83441302Y-116250053D01*
X83441302Y-116250053D02*
X83346064Y-116297672D01*
X83346064Y-116297672D02*
X83298445Y-116345291D01*
X83298445Y-116345291D02*
X83250826Y-116440529D01*
D11*
%TO.C,KSW3*%
X97473876Y-80373530D02*
X97473876Y-79373530D01*
X98045304Y-80373530D02*
X97616733Y-79802102D01*
X98045304Y-79373530D02*
X97473876Y-79944959D01*
X98426257Y-80325911D02*
X98569114Y-80373530D01*
X98569114Y-80373530D02*
X98807209Y-80373530D01*
X98807209Y-80373530D02*
X98902447Y-80325911D01*
X98902447Y-80325911D02*
X98950066Y-80278292D01*
X98950066Y-80278292D02*
X98997685Y-80183054D01*
X98997685Y-80183054D02*
X98997685Y-80087816D01*
X98997685Y-80087816D02*
X98950066Y-79992578D01*
X98950066Y-79992578D02*
X98902447Y-79944959D01*
X98902447Y-79944959D02*
X98807209Y-79897340D01*
X98807209Y-79897340D02*
X98616733Y-79849721D01*
X98616733Y-79849721D02*
X98521495Y-79802102D01*
X98521495Y-79802102D02*
X98473876Y-79754483D01*
X98473876Y-79754483D02*
X98426257Y-79659245D01*
X98426257Y-79659245D02*
X98426257Y-79564007D01*
X98426257Y-79564007D02*
X98473876Y-79468769D01*
X98473876Y-79468769D02*
X98521495Y-79421150D01*
X98521495Y-79421150D02*
X98616733Y-79373530D01*
X98616733Y-79373530D02*
X98854828Y-79373530D01*
X98854828Y-79373530D02*
X98997685Y-79421150D01*
X99331019Y-79373530D02*
X99569114Y-80373530D01*
X99569114Y-80373530D02*
X99759590Y-79659245D01*
X99759590Y-79659245D02*
X99950066Y-80373530D01*
X99950066Y-80373530D02*
X100188162Y-79373530D01*
X100473876Y-79373530D02*
X101092923Y-79373530D01*
X101092923Y-79373530D02*
X100759590Y-79754483D01*
X100759590Y-79754483D02*
X100902447Y-79754483D01*
X100902447Y-79754483D02*
X100997685Y-79802102D01*
X100997685Y-79802102D02*
X101045304Y-79849721D01*
X101045304Y-79849721D02*
X101092923Y-79944959D01*
X101092923Y-79944959D02*
X101092923Y-80183054D01*
X101092923Y-80183054D02*
X101045304Y-80278292D01*
X101045304Y-80278292D02*
X100997685Y-80325911D01*
X100997685Y-80325911D02*
X100902447Y-80373530D01*
X100902447Y-80373530D02*
X100616733Y-80373530D01*
X100616733Y-80373530D02*
X100521495Y-80325911D01*
X100521495Y-80325911D02*
X100473876Y-80278292D01*
D10*
%TO.C,C2*%
X82869873Y-97724902D02*
X82822254Y-97772521D01*
X82822254Y-97772521D02*
X82679397Y-97820140D01*
X82679397Y-97820140D02*
X82584159Y-97820140D01*
X82584159Y-97820140D02*
X82441302Y-97772521D01*
X82441302Y-97772521D02*
X82346064Y-97677283D01*
X82346064Y-97677283D02*
X82298445Y-97582045D01*
X82298445Y-97582045D02*
X82250826Y-97391569D01*
X82250826Y-97391569D02*
X82250826Y-97248712D01*
X82250826Y-97248712D02*
X82298445Y-97058236D01*
X82298445Y-97058236D02*
X82346064Y-96962998D01*
X82346064Y-96962998D02*
X82441302Y-96867760D01*
X82441302Y-96867760D02*
X82584159Y-96820140D01*
X82584159Y-96820140D02*
X82679397Y-96820140D01*
X82679397Y-96820140D02*
X82822254Y-96867760D01*
X82822254Y-96867760D02*
X82869873Y-96915379D01*
X83250826Y-96915379D02*
X83298445Y-96867760D01*
X83298445Y-96867760D02*
X83393683Y-96820140D01*
X83393683Y-96820140D02*
X83631778Y-96820140D01*
X83631778Y-96820140D02*
X83727016Y-96867760D01*
X83727016Y-96867760D02*
X83774635Y-96915379D01*
X83774635Y-96915379D02*
X83822254Y-97010617D01*
X83822254Y-97010617D02*
X83822254Y-97105855D01*
X83822254Y-97105855D02*
X83774635Y-97248712D01*
X83774635Y-97248712D02*
X83203207Y-97820140D01*
X83203207Y-97820140D02*
X83822254Y-97820140D01*
D11*
%TO.C,KSW15*%
X96997685Y-137523530D02*
X96997685Y-136523530D01*
X97569113Y-137523530D02*
X97140542Y-136952102D01*
X97569113Y-136523530D02*
X96997685Y-137094959D01*
X97950066Y-137475911D02*
X98092923Y-137523530D01*
X98092923Y-137523530D02*
X98331018Y-137523530D01*
X98331018Y-137523530D02*
X98426256Y-137475911D01*
X98426256Y-137475911D02*
X98473875Y-137428292D01*
X98473875Y-137428292D02*
X98521494Y-137333054D01*
X98521494Y-137333054D02*
X98521494Y-137237816D01*
X98521494Y-137237816D02*
X98473875Y-137142578D01*
X98473875Y-137142578D02*
X98426256Y-137094959D01*
X98426256Y-137094959D02*
X98331018Y-137047340D01*
X98331018Y-137047340D02*
X98140542Y-136999721D01*
X98140542Y-136999721D02*
X98045304Y-136952102D01*
X98045304Y-136952102D02*
X97997685Y-136904483D01*
X97997685Y-136904483D02*
X97950066Y-136809245D01*
X97950066Y-136809245D02*
X97950066Y-136714007D01*
X97950066Y-136714007D02*
X97997685Y-136618769D01*
X97997685Y-136618769D02*
X98045304Y-136571150D01*
X98045304Y-136571150D02*
X98140542Y-136523530D01*
X98140542Y-136523530D02*
X98378637Y-136523530D01*
X98378637Y-136523530D02*
X98521494Y-136571150D01*
X98854828Y-136523530D02*
X99092923Y-137523530D01*
X99092923Y-137523530D02*
X99283399Y-136809245D01*
X99283399Y-136809245D02*
X99473875Y-137523530D01*
X99473875Y-137523530D02*
X99711971Y-136523530D01*
X100616732Y-137523530D02*
X100045304Y-137523530D01*
X100331018Y-137523530D02*
X100331018Y-136523530D01*
X100331018Y-136523530D02*
X100235780Y-136666388D01*
X100235780Y-136666388D02*
X100140542Y-136761626D01*
X100140542Y-136761626D02*
X100045304Y-136809245D01*
X101521494Y-136523530D02*
X101045304Y-136523530D01*
X101045304Y-136523530D02*
X100997685Y-136999721D01*
X100997685Y-136999721D02*
X101045304Y-136952102D01*
X101045304Y-136952102D02*
X101140542Y-136904483D01*
X101140542Y-136904483D02*
X101378637Y-136904483D01*
X101378637Y-136904483D02*
X101473875Y-136952102D01*
X101473875Y-136952102D02*
X101521494Y-136999721D01*
X101521494Y-136999721D02*
X101569113Y-137094959D01*
X101569113Y-137094959D02*
X101569113Y-137333054D01*
X101569113Y-137333054D02*
X101521494Y-137428292D01*
X101521494Y-137428292D02*
X101473875Y-137475911D01*
X101473875Y-137475911D02*
X101378637Y-137523530D01*
X101378637Y-137523530D02*
X101140542Y-137523530D01*
X101140542Y-137523530D02*
X101045304Y-137475911D01*
X101045304Y-137475911D02*
X100997685Y-137428292D01*
D10*
%TO.C,C1*%
X63820913Y-97707492D02*
X63773294Y-97755111D01*
X63773294Y-97755111D02*
X63630437Y-97802730D01*
X63630437Y-97802730D02*
X63535199Y-97802730D01*
X63535199Y-97802730D02*
X63392342Y-97755111D01*
X63392342Y-97755111D02*
X63297104Y-97659873D01*
X63297104Y-97659873D02*
X63249485Y-97564635D01*
X63249485Y-97564635D02*
X63201866Y-97374159D01*
X63201866Y-97374159D02*
X63201866Y-97231302D01*
X63201866Y-97231302D02*
X63249485Y-97040826D01*
X63249485Y-97040826D02*
X63297104Y-96945588D01*
X63297104Y-96945588D02*
X63392342Y-96850350D01*
X63392342Y-96850350D02*
X63535199Y-96802730D01*
X63535199Y-96802730D02*
X63630437Y-96802730D01*
X63630437Y-96802730D02*
X63773294Y-96850350D01*
X63773294Y-96850350D02*
X63820913Y-96897969D01*
X64773294Y-97802730D02*
X64201866Y-97802730D01*
X64487580Y-97802730D02*
X64487580Y-96802730D01*
X64487580Y-96802730D02*
X64392342Y-96945588D01*
X64392342Y-96945588D02*
X64297104Y-97040826D01*
X64297104Y-97040826D02*
X64201866Y-97088445D01*
%TO.C,C16*%
X120945310Y-154880598D02*
X120897691Y-154928217D01*
X120897691Y-154928217D02*
X120754834Y-154975836D01*
X120754834Y-154975836D02*
X120659596Y-154975836D01*
X120659596Y-154975836D02*
X120516739Y-154928217D01*
X120516739Y-154928217D02*
X120421501Y-154832979D01*
X120421501Y-154832979D02*
X120373882Y-154737741D01*
X120373882Y-154737741D02*
X120326263Y-154547265D01*
X120326263Y-154547265D02*
X120326263Y-154404408D01*
X120326263Y-154404408D02*
X120373882Y-154213932D01*
X120373882Y-154213932D02*
X120421501Y-154118694D01*
X120421501Y-154118694D02*
X120516739Y-154023456D01*
X120516739Y-154023456D02*
X120659596Y-153975836D01*
X120659596Y-153975836D02*
X120754834Y-153975836D01*
X120754834Y-153975836D02*
X120897691Y-154023456D01*
X120897691Y-154023456D02*
X120945310Y-154071075D01*
X121897691Y-154975836D02*
X121326263Y-154975836D01*
X121611977Y-154975836D02*
X121611977Y-153975836D01*
X121611977Y-153975836D02*
X121516739Y-154118694D01*
X121516739Y-154118694D02*
X121421501Y-154213932D01*
X121421501Y-154213932D02*
X121326263Y-154261551D01*
X122754834Y-153975836D02*
X122564358Y-153975836D01*
X122564358Y-153975836D02*
X122469120Y-154023456D01*
X122469120Y-154023456D02*
X122421501Y-154071075D01*
X122421501Y-154071075D02*
X122326263Y-154213932D01*
X122326263Y-154213932D02*
X122278644Y-154404408D01*
X122278644Y-154404408D02*
X122278644Y-154785360D01*
X122278644Y-154785360D02*
X122326263Y-154880598D01*
X122326263Y-154880598D02*
X122373882Y-154928217D01*
X122373882Y-154928217D02*
X122469120Y-154975836D01*
X122469120Y-154975836D02*
X122659596Y-154975836D01*
X122659596Y-154975836D02*
X122754834Y-154928217D01*
X122754834Y-154928217D02*
X122802453Y-154880598D01*
X122802453Y-154880598D02*
X122850072Y-154785360D01*
X122850072Y-154785360D02*
X122850072Y-154547265D01*
X122850072Y-154547265D02*
X122802453Y-154452027D01*
X122802453Y-154452027D02*
X122754834Y-154404408D01*
X122754834Y-154404408D02*
X122659596Y-154356789D01*
X122659596Y-154356789D02*
X122469120Y-154356789D01*
X122469120Y-154356789D02*
X122373882Y-154404408D01*
X122373882Y-154404408D02*
X122326263Y-154452027D01*
X122326263Y-154452027D02*
X122278644Y-154547265D01*
D11*
%TO.C,KSW6*%
X78423876Y-99423530D02*
X78423876Y-98423530D01*
X78995304Y-99423530D02*
X78566733Y-98852102D01*
X78995304Y-98423530D02*
X78423876Y-98994959D01*
X79376257Y-99375911D02*
X79519114Y-99423530D01*
X79519114Y-99423530D02*
X79757209Y-99423530D01*
X79757209Y-99423530D02*
X79852447Y-99375911D01*
X79852447Y-99375911D02*
X79900066Y-99328292D01*
X79900066Y-99328292D02*
X79947685Y-99233054D01*
X79947685Y-99233054D02*
X79947685Y-99137816D01*
X79947685Y-99137816D02*
X79900066Y-99042578D01*
X79900066Y-99042578D02*
X79852447Y-98994959D01*
X79852447Y-98994959D02*
X79757209Y-98947340D01*
X79757209Y-98947340D02*
X79566733Y-98899721D01*
X79566733Y-98899721D02*
X79471495Y-98852102D01*
X79471495Y-98852102D02*
X79423876Y-98804483D01*
X79423876Y-98804483D02*
X79376257Y-98709245D01*
X79376257Y-98709245D02*
X79376257Y-98614007D01*
X79376257Y-98614007D02*
X79423876Y-98518769D01*
X79423876Y-98518769D02*
X79471495Y-98471150D01*
X79471495Y-98471150D02*
X79566733Y-98423530D01*
X79566733Y-98423530D02*
X79804828Y-98423530D01*
X79804828Y-98423530D02*
X79947685Y-98471150D01*
X80281019Y-98423530D02*
X80519114Y-99423530D01*
X80519114Y-99423530D02*
X80709590Y-98709245D01*
X80709590Y-98709245D02*
X80900066Y-99423530D01*
X80900066Y-99423530D02*
X81138162Y-98423530D01*
X81947685Y-98423530D02*
X81757209Y-98423530D01*
X81757209Y-98423530D02*
X81661971Y-98471150D01*
X81661971Y-98471150D02*
X81614352Y-98518769D01*
X81614352Y-98518769D02*
X81519114Y-98661626D01*
X81519114Y-98661626D02*
X81471495Y-98852102D01*
X81471495Y-98852102D02*
X81471495Y-99233054D01*
X81471495Y-99233054D02*
X81519114Y-99328292D01*
X81519114Y-99328292D02*
X81566733Y-99375911D01*
X81566733Y-99375911D02*
X81661971Y-99423530D01*
X81661971Y-99423530D02*
X81852447Y-99423530D01*
X81852447Y-99423530D02*
X81947685Y-99375911D01*
X81947685Y-99375911D02*
X81995304Y-99328292D01*
X81995304Y-99328292D02*
X82042923Y-99233054D01*
X82042923Y-99233054D02*
X82042923Y-98994959D01*
X82042923Y-98994959D02*
X81995304Y-98899721D01*
X81995304Y-98899721D02*
X81947685Y-98852102D01*
X81947685Y-98852102D02*
X81852447Y-98804483D01*
X81852447Y-98804483D02*
X81661971Y-98804483D01*
X81661971Y-98804483D02*
X81566733Y-98852102D01*
X81566733Y-98852102D02*
X81519114Y-98899721D01*
X81519114Y-98899721D02*
X81471495Y-98994959D01*
%TO.C,KSW14*%
X77947685Y-137523530D02*
X77947685Y-136523530D01*
X78519113Y-137523530D02*
X78090542Y-136952102D01*
X78519113Y-136523530D02*
X77947685Y-137094959D01*
X78900066Y-137475911D02*
X79042923Y-137523530D01*
X79042923Y-137523530D02*
X79281018Y-137523530D01*
X79281018Y-137523530D02*
X79376256Y-137475911D01*
X79376256Y-137475911D02*
X79423875Y-137428292D01*
X79423875Y-137428292D02*
X79471494Y-137333054D01*
X79471494Y-137333054D02*
X79471494Y-137237816D01*
X79471494Y-137237816D02*
X79423875Y-137142578D01*
X79423875Y-137142578D02*
X79376256Y-137094959D01*
X79376256Y-137094959D02*
X79281018Y-137047340D01*
X79281018Y-137047340D02*
X79090542Y-136999721D01*
X79090542Y-136999721D02*
X78995304Y-136952102D01*
X78995304Y-136952102D02*
X78947685Y-136904483D01*
X78947685Y-136904483D02*
X78900066Y-136809245D01*
X78900066Y-136809245D02*
X78900066Y-136714007D01*
X78900066Y-136714007D02*
X78947685Y-136618769D01*
X78947685Y-136618769D02*
X78995304Y-136571150D01*
X78995304Y-136571150D02*
X79090542Y-136523530D01*
X79090542Y-136523530D02*
X79328637Y-136523530D01*
X79328637Y-136523530D02*
X79471494Y-136571150D01*
X79804828Y-136523530D02*
X80042923Y-137523530D01*
X80042923Y-137523530D02*
X80233399Y-136809245D01*
X80233399Y-136809245D02*
X80423875Y-137523530D01*
X80423875Y-137523530D02*
X80661971Y-136523530D01*
X81566732Y-137523530D02*
X80995304Y-137523530D01*
X81281018Y-137523530D02*
X81281018Y-136523530D01*
X81281018Y-136523530D02*
X81185780Y-136666388D01*
X81185780Y-136666388D02*
X81090542Y-136761626D01*
X81090542Y-136761626D02*
X80995304Y-136809245D01*
X82423875Y-136856864D02*
X82423875Y-137523530D01*
X82185780Y-136475911D02*
X81947685Y-137190197D01*
X81947685Y-137190197D02*
X82566732Y-137190197D01*
%TO.C,KSW1*%
X59373876Y-80373530D02*
X59373876Y-79373530D01*
X59945304Y-80373530D02*
X59516733Y-79802102D01*
X59945304Y-79373530D02*
X59373876Y-79944959D01*
X60326257Y-80325911D02*
X60469114Y-80373530D01*
X60469114Y-80373530D02*
X60707209Y-80373530D01*
X60707209Y-80373530D02*
X60802447Y-80325911D01*
X60802447Y-80325911D02*
X60850066Y-80278292D01*
X60850066Y-80278292D02*
X60897685Y-80183054D01*
X60897685Y-80183054D02*
X60897685Y-80087816D01*
X60897685Y-80087816D02*
X60850066Y-79992578D01*
X60850066Y-79992578D02*
X60802447Y-79944959D01*
X60802447Y-79944959D02*
X60707209Y-79897340D01*
X60707209Y-79897340D02*
X60516733Y-79849721D01*
X60516733Y-79849721D02*
X60421495Y-79802102D01*
X60421495Y-79802102D02*
X60373876Y-79754483D01*
X60373876Y-79754483D02*
X60326257Y-79659245D01*
X60326257Y-79659245D02*
X60326257Y-79564007D01*
X60326257Y-79564007D02*
X60373876Y-79468769D01*
X60373876Y-79468769D02*
X60421495Y-79421150D01*
X60421495Y-79421150D02*
X60516733Y-79373530D01*
X60516733Y-79373530D02*
X60754828Y-79373530D01*
X60754828Y-79373530D02*
X60897685Y-79421150D01*
X61231019Y-79373530D02*
X61469114Y-80373530D01*
X61469114Y-80373530D02*
X61659590Y-79659245D01*
X61659590Y-79659245D02*
X61850066Y-80373530D01*
X61850066Y-80373530D02*
X62088162Y-79373530D01*
X62992923Y-80373530D02*
X62421495Y-80373530D01*
X62707209Y-80373530D02*
X62707209Y-79373530D01*
X62707209Y-79373530D02*
X62611971Y-79516388D01*
X62611971Y-79516388D02*
X62516733Y-79611626D01*
X62516733Y-79611626D02*
X62421495Y-79659245D01*
%TO.C,KSW2*%
X78423876Y-80373530D02*
X78423876Y-79373530D01*
X78995304Y-80373530D02*
X78566733Y-79802102D01*
X78995304Y-79373530D02*
X78423876Y-79944959D01*
X79376257Y-80325911D02*
X79519114Y-80373530D01*
X79519114Y-80373530D02*
X79757209Y-80373530D01*
X79757209Y-80373530D02*
X79852447Y-80325911D01*
X79852447Y-80325911D02*
X79900066Y-80278292D01*
X79900066Y-80278292D02*
X79947685Y-80183054D01*
X79947685Y-80183054D02*
X79947685Y-80087816D01*
X79947685Y-80087816D02*
X79900066Y-79992578D01*
X79900066Y-79992578D02*
X79852447Y-79944959D01*
X79852447Y-79944959D02*
X79757209Y-79897340D01*
X79757209Y-79897340D02*
X79566733Y-79849721D01*
X79566733Y-79849721D02*
X79471495Y-79802102D01*
X79471495Y-79802102D02*
X79423876Y-79754483D01*
X79423876Y-79754483D02*
X79376257Y-79659245D01*
X79376257Y-79659245D02*
X79376257Y-79564007D01*
X79376257Y-79564007D02*
X79423876Y-79468769D01*
X79423876Y-79468769D02*
X79471495Y-79421150D01*
X79471495Y-79421150D02*
X79566733Y-79373530D01*
X79566733Y-79373530D02*
X79804828Y-79373530D01*
X79804828Y-79373530D02*
X79947685Y-79421150D01*
X80281019Y-79373530D02*
X80519114Y-80373530D01*
X80519114Y-80373530D02*
X80709590Y-79659245D01*
X80709590Y-79659245D02*
X80900066Y-80373530D01*
X80900066Y-80373530D02*
X81138162Y-79373530D01*
X81471495Y-79468769D02*
X81519114Y-79421150D01*
X81519114Y-79421150D02*
X81614352Y-79373530D01*
X81614352Y-79373530D02*
X81852447Y-79373530D01*
X81852447Y-79373530D02*
X81947685Y-79421150D01*
X81947685Y-79421150D02*
X81995304Y-79468769D01*
X81995304Y-79468769D02*
X82042923Y-79564007D01*
X82042923Y-79564007D02*
X82042923Y-79659245D01*
X82042923Y-79659245D02*
X81995304Y-79802102D01*
X81995304Y-79802102D02*
X81423876Y-80373530D01*
X81423876Y-80373530D02*
X82042923Y-80373530D01*
%TO.C,KSW5*%
X59373876Y-99423530D02*
X59373876Y-98423530D01*
X59945304Y-99423530D02*
X59516733Y-98852102D01*
X59945304Y-98423530D02*
X59373876Y-98994959D01*
X60326257Y-99375911D02*
X60469114Y-99423530D01*
X60469114Y-99423530D02*
X60707209Y-99423530D01*
X60707209Y-99423530D02*
X60802447Y-99375911D01*
X60802447Y-99375911D02*
X60850066Y-99328292D01*
X60850066Y-99328292D02*
X60897685Y-99233054D01*
X60897685Y-99233054D02*
X60897685Y-99137816D01*
X60897685Y-99137816D02*
X60850066Y-99042578D01*
X60850066Y-99042578D02*
X60802447Y-98994959D01*
X60802447Y-98994959D02*
X60707209Y-98947340D01*
X60707209Y-98947340D02*
X60516733Y-98899721D01*
X60516733Y-98899721D02*
X60421495Y-98852102D01*
X60421495Y-98852102D02*
X60373876Y-98804483D01*
X60373876Y-98804483D02*
X60326257Y-98709245D01*
X60326257Y-98709245D02*
X60326257Y-98614007D01*
X60326257Y-98614007D02*
X60373876Y-98518769D01*
X60373876Y-98518769D02*
X60421495Y-98471150D01*
X60421495Y-98471150D02*
X60516733Y-98423530D01*
X60516733Y-98423530D02*
X60754828Y-98423530D01*
X60754828Y-98423530D02*
X60897685Y-98471150D01*
X61231019Y-98423530D02*
X61469114Y-99423530D01*
X61469114Y-99423530D02*
X61659590Y-98709245D01*
X61659590Y-98709245D02*
X61850066Y-99423530D01*
X61850066Y-99423530D02*
X62088162Y-98423530D01*
X62945304Y-98423530D02*
X62469114Y-98423530D01*
X62469114Y-98423530D02*
X62421495Y-98899721D01*
X62421495Y-98899721D02*
X62469114Y-98852102D01*
X62469114Y-98852102D02*
X62564352Y-98804483D01*
X62564352Y-98804483D02*
X62802447Y-98804483D01*
X62802447Y-98804483D02*
X62897685Y-98852102D01*
X62897685Y-98852102D02*
X62945304Y-98899721D01*
X62945304Y-98899721D02*
X62992923Y-98994959D01*
X62992923Y-98994959D02*
X62992923Y-99233054D01*
X62992923Y-99233054D02*
X62945304Y-99328292D01*
X62945304Y-99328292D02*
X62897685Y-99375911D01*
X62897685Y-99375911D02*
X62802447Y-99423530D01*
X62802447Y-99423530D02*
X62564352Y-99423530D01*
X62564352Y-99423530D02*
X62469114Y-99375911D01*
X62469114Y-99375911D02*
X62421495Y-99328292D01*
D10*
%TO.C,RSW1*%
X144926970Y-65970435D02*
X144450780Y-66303768D01*
X144926970Y-66541863D02*
X143926970Y-66541863D01*
X143926970Y-66541863D02*
X143926970Y-66160911D01*
X143926970Y-66160911D02*
X143974590Y-66065673D01*
X143974590Y-66065673D02*
X144022209Y-66018054D01*
X144022209Y-66018054D02*
X144117447Y-65970435D01*
X144117447Y-65970435D02*
X144260304Y-65970435D01*
X144260304Y-65970435D02*
X144355542Y-66018054D01*
X144355542Y-66018054D02*
X144403161Y-66065673D01*
X144403161Y-66065673D02*
X144450780Y-66160911D01*
X144450780Y-66160911D02*
X144450780Y-66541863D01*
X144879351Y-65589482D02*
X144926970Y-65446625D01*
X144926970Y-65446625D02*
X144926970Y-65208530D01*
X144926970Y-65208530D02*
X144879351Y-65113292D01*
X144879351Y-65113292D02*
X144831732Y-65065673D01*
X144831732Y-65065673D02*
X144736494Y-65018054D01*
X144736494Y-65018054D02*
X144641256Y-65018054D01*
X144641256Y-65018054D02*
X144546018Y-65065673D01*
X144546018Y-65065673D02*
X144498399Y-65113292D01*
X144498399Y-65113292D02*
X144450780Y-65208530D01*
X144450780Y-65208530D02*
X144403161Y-65399006D01*
X144403161Y-65399006D02*
X144355542Y-65494244D01*
X144355542Y-65494244D02*
X144307923Y-65541863D01*
X144307923Y-65541863D02*
X144212685Y-65589482D01*
X144212685Y-65589482D02*
X144117447Y-65589482D01*
X144117447Y-65589482D02*
X144022209Y-65541863D01*
X144022209Y-65541863D02*
X143974590Y-65494244D01*
X143974590Y-65494244D02*
X143926970Y-65399006D01*
X143926970Y-65399006D02*
X143926970Y-65160911D01*
X143926970Y-65160911D02*
X143974590Y-65018054D01*
X143926970Y-64684720D02*
X144926970Y-64446625D01*
X144926970Y-64446625D02*
X144212685Y-64256149D01*
X144212685Y-64256149D02*
X144926970Y-64065673D01*
X144926970Y-64065673D02*
X143926970Y-63827578D01*
X144926970Y-62922816D02*
X144926970Y-63494244D01*
X144926970Y-63208530D02*
X143926970Y-63208530D01*
X143926970Y-63208530D02*
X144069828Y-63303768D01*
X144069828Y-63303768D02*
X144165066Y-63399006D01*
X144165066Y-63399006D02*
X144212685Y-63494244D01*
%TO.C,C15*%
X101895326Y-154880598D02*
X101847707Y-154928217D01*
X101847707Y-154928217D02*
X101704850Y-154975836D01*
X101704850Y-154975836D02*
X101609612Y-154975836D01*
X101609612Y-154975836D02*
X101466755Y-154928217D01*
X101466755Y-154928217D02*
X101371517Y-154832979D01*
X101371517Y-154832979D02*
X101323898Y-154737741D01*
X101323898Y-154737741D02*
X101276279Y-154547265D01*
X101276279Y-154547265D02*
X101276279Y-154404408D01*
X101276279Y-154404408D02*
X101323898Y-154213932D01*
X101323898Y-154213932D02*
X101371517Y-154118694D01*
X101371517Y-154118694D02*
X101466755Y-154023456D01*
X101466755Y-154023456D02*
X101609612Y-153975836D01*
X101609612Y-153975836D02*
X101704850Y-153975836D01*
X101704850Y-153975836D02*
X101847707Y-154023456D01*
X101847707Y-154023456D02*
X101895326Y-154071075D01*
X102847707Y-154975836D02*
X102276279Y-154975836D01*
X102561993Y-154975836D02*
X102561993Y-153975836D01*
X102561993Y-153975836D02*
X102466755Y-154118694D01*
X102466755Y-154118694D02*
X102371517Y-154213932D01*
X102371517Y-154213932D02*
X102276279Y-154261551D01*
X103752469Y-153975836D02*
X103276279Y-153975836D01*
X103276279Y-153975836D02*
X103228660Y-154452027D01*
X103228660Y-154452027D02*
X103276279Y-154404408D01*
X103276279Y-154404408D02*
X103371517Y-154356789D01*
X103371517Y-154356789D02*
X103609612Y-154356789D01*
X103609612Y-154356789D02*
X103704850Y-154404408D01*
X103704850Y-154404408D02*
X103752469Y-154452027D01*
X103752469Y-154452027D02*
X103800088Y-154547265D01*
X103800088Y-154547265D02*
X103800088Y-154785360D01*
X103800088Y-154785360D02*
X103752469Y-154880598D01*
X103752469Y-154880598D02*
X103704850Y-154928217D01*
X103704850Y-154928217D02*
X103609612Y-154975836D01*
X103609612Y-154975836D02*
X103371517Y-154975836D01*
X103371517Y-154975836D02*
X103276279Y-154928217D01*
X103276279Y-154928217D02*
X103228660Y-154880598D01*
D11*
%TO.C,KSW12*%
X116047685Y-118473530D02*
X116047685Y-117473530D01*
X116619113Y-118473530D02*
X116190542Y-117902102D01*
X116619113Y-117473530D02*
X116047685Y-118044959D01*
X117000066Y-118425911D02*
X117142923Y-118473530D01*
X117142923Y-118473530D02*
X117381018Y-118473530D01*
X117381018Y-118473530D02*
X117476256Y-118425911D01*
X117476256Y-118425911D02*
X117523875Y-118378292D01*
X117523875Y-118378292D02*
X117571494Y-118283054D01*
X117571494Y-118283054D02*
X117571494Y-118187816D01*
X117571494Y-118187816D02*
X117523875Y-118092578D01*
X117523875Y-118092578D02*
X117476256Y-118044959D01*
X117476256Y-118044959D02*
X117381018Y-117997340D01*
X117381018Y-117997340D02*
X117190542Y-117949721D01*
X117190542Y-117949721D02*
X117095304Y-117902102D01*
X117095304Y-117902102D02*
X117047685Y-117854483D01*
X117047685Y-117854483D02*
X117000066Y-117759245D01*
X117000066Y-117759245D02*
X117000066Y-117664007D01*
X117000066Y-117664007D02*
X117047685Y-117568769D01*
X117047685Y-117568769D02*
X117095304Y-117521150D01*
X117095304Y-117521150D02*
X117190542Y-117473530D01*
X117190542Y-117473530D02*
X117428637Y-117473530D01*
X117428637Y-117473530D02*
X117571494Y-117521150D01*
X117904828Y-117473530D02*
X118142923Y-118473530D01*
X118142923Y-118473530D02*
X118333399Y-117759245D01*
X118333399Y-117759245D02*
X118523875Y-118473530D01*
X118523875Y-118473530D02*
X118761971Y-117473530D01*
X119666732Y-118473530D02*
X119095304Y-118473530D01*
X119381018Y-118473530D02*
X119381018Y-117473530D01*
X119381018Y-117473530D02*
X119285780Y-117616388D01*
X119285780Y-117616388D02*
X119190542Y-117711626D01*
X119190542Y-117711626D02*
X119095304Y-117759245D01*
X120047685Y-117568769D02*
X120095304Y-117521150D01*
X120095304Y-117521150D02*
X120190542Y-117473530D01*
X120190542Y-117473530D02*
X120428637Y-117473530D01*
X120428637Y-117473530D02*
X120523875Y-117521150D01*
X120523875Y-117521150D02*
X120571494Y-117568769D01*
X120571494Y-117568769D02*
X120619113Y-117664007D01*
X120619113Y-117664007D02*
X120619113Y-117759245D01*
X120619113Y-117759245D02*
X120571494Y-117902102D01*
X120571494Y-117902102D02*
X120000066Y-118473530D01*
X120000066Y-118473530D02*
X120619113Y-118473530D01*
D10*
%TO.C,C12*%
X120945310Y-135830614D02*
X120897691Y-135878233D01*
X120897691Y-135878233D02*
X120754834Y-135925852D01*
X120754834Y-135925852D02*
X120659596Y-135925852D01*
X120659596Y-135925852D02*
X120516739Y-135878233D01*
X120516739Y-135878233D02*
X120421501Y-135782995D01*
X120421501Y-135782995D02*
X120373882Y-135687757D01*
X120373882Y-135687757D02*
X120326263Y-135497281D01*
X120326263Y-135497281D02*
X120326263Y-135354424D01*
X120326263Y-135354424D02*
X120373882Y-135163948D01*
X120373882Y-135163948D02*
X120421501Y-135068710D01*
X120421501Y-135068710D02*
X120516739Y-134973472D01*
X120516739Y-134973472D02*
X120659596Y-134925852D01*
X120659596Y-134925852D02*
X120754834Y-134925852D01*
X120754834Y-134925852D02*
X120897691Y-134973472D01*
X120897691Y-134973472D02*
X120945310Y-135021091D01*
X121897691Y-135925852D02*
X121326263Y-135925852D01*
X121611977Y-135925852D02*
X121611977Y-134925852D01*
X121611977Y-134925852D02*
X121516739Y-135068710D01*
X121516739Y-135068710D02*
X121421501Y-135163948D01*
X121421501Y-135163948D02*
X121326263Y-135211567D01*
X122278644Y-135021091D02*
X122326263Y-134973472D01*
X122326263Y-134973472D02*
X122421501Y-134925852D01*
X122421501Y-134925852D02*
X122659596Y-134925852D01*
X122659596Y-134925852D02*
X122754834Y-134973472D01*
X122754834Y-134973472D02*
X122802453Y-135021091D01*
X122802453Y-135021091D02*
X122850072Y-135116329D01*
X122850072Y-135116329D02*
X122850072Y-135211567D01*
X122850072Y-135211567D02*
X122802453Y-135354424D01*
X122802453Y-135354424D02*
X122231025Y-135925852D01*
X122231025Y-135925852D02*
X122850072Y-135925852D01*
%TO.C,C9*%
X63820913Y-135822822D02*
X63773294Y-135870441D01*
X63773294Y-135870441D02*
X63630437Y-135918060D01*
X63630437Y-135918060D02*
X63535199Y-135918060D01*
X63535199Y-135918060D02*
X63392342Y-135870441D01*
X63392342Y-135870441D02*
X63297104Y-135775203D01*
X63297104Y-135775203D02*
X63249485Y-135679965D01*
X63249485Y-135679965D02*
X63201866Y-135489489D01*
X63201866Y-135489489D02*
X63201866Y-135346632D01*
X63201866Y-135346632D02*
X63249485Y-135156156D01*
X63249485Y-135156156D02*
X63297104Y-135060918D01*
X63297104Y-135060918D02*
X63392342Y-134965680D01*
X63392342Y-134965680D02*
X63535199Y-134918060D01*
X63535199Y-134918060D02*
X63630437Y-134918060D01*
X63630437Y-134918060D02*
X63773294Y-134965680D01*
X63773294Y-134965680D02*
X63820913Y-135013299D01*
X64297104Y-135918060D02*
X64487580Y-135918060D01*
X64487580Y-135918060D02*
X64582818Y-135870441D01*
X64582818Y-135870441D02*
X64630437Y-135822822D01*
X64630437Y-135822822D02*
X64725675Y-135679965D01*
X64725675Y-135679965D02*
X64773294Y-135489489D01*
X64773294Y-135489489D02*
X64773294Y-135108537D01*
X64773294Y-135108537D02*
X64725675Y-135013299D01*
X64725675Y-135013299D02*
X64678056Y-134965680D01*
X64678056Y-134965680D02*
X64582818Y-134918060D01*
X64582818Y-134918060D02*
X64392342Y-134918060D01*
X64392342Y-134918060D02*
X64297104Y-134965680D01*
X64297104Y-134965680D02*
X64249485Y-135013299D01*
X64249485Y-135013299D02*
X64201866Y-135108537D01*
X64201866Y-135108537D02*
X64201866Y-135346632D01*
X64201866Y-135346632D02*
X64249485Y-135441870D01*
X64249485Y-135441870D02*
X64297104Y-135489489D01*
X64297104Y-135489489D02*
X64392342Y-135537108D01*
X64392342Y-135537108D02*
X64582818Y-135537108D01*
X64582818Y-135537108D02*
X64678056Y-135489489D01*
X64678056Y-135489489D02*
X64725675Y-135441870D01*
X64725675Y-135441870D02*
X64773294Y-135346632D01*
D11*
%TO.C,KSW10*%
X77947685Y-118473530D02*
X77947685Y-117473530D01*
X78519113Y-118473530D02*
X78090542Y-117902102D01*
X78519113Y-117473530D02*
X77947685Y-118044959D01*
X78900066Y-118425911D02*
X79042923Y-118473530D01*
X79042923Y-118473530D02*
X79281018Y-118473530D01*
X79281018Y-118473530D02*
X79376256Y-118425911D01*
X79376256Y-118425911D02*
X79423875Y-118378292D01*
X79423875Y-118378292D02*
X79471494Y-118283054D01*
X79471494Y-118283054D02*
X79471494Y-118187816D01*
X79471494Y-118187816D02*
X79423875Y-118092578D01*
X79423875Y-118092578D02*
X79376256Y-118044959D01*
X79376256Y-118044959D02*
X79281018Y-117997340D01*
X79281018Y-117997340D02*
X79090542Y-117949721D01*
X79090542Y-117949721D02*
X78995304Y-117902102D01*
X78995304Y-117902102D02*
X78947685Y-117854483D01*
X78947685Y-117854483D02*
X78900066Y-117759245D01*
X78900066Y-117759245D02*
X78900066Y-117664007D01*
X78900066Y-117664007D02*
X78947685Y-117568769D01*
X78947685Y-117568769D02*
X78995304Y-117521150D01*
X78995304Y-117521150D02*
X79090542Y-117473530D01*
X79090542Y-117473530D02*
X79328637Y-117473530D01*
X79328637Y-117473530D02*
X79471494Y-117521150D01*
X79804828Y-117473530D02*
X80042923Y-118473530D01*
X80042923Y-118473530D02*
X80233399Y-117759245D01*
X80233399Y-117759245D02*
X80423875Y-118473530D01*
X80423875Y-118473530D02*
X80661971Y-117473530D01*
X81566732Y-118473530D02*
X80995304Y-118473530D01*
X81281018Y-118473530D02*
X81281018Y-117473530D01*
X81281018Y-117473530D02*
X81185780Y-117616388D01*
X81185780Y-117616388D02*
X81090542Y-117711626D01*
X81090542Y-117711626D02*
X80995304Y-117759245D01*
X82185780Y-117473530D02*
X82281018Y-117473530D01*
X82281018Y-117473530D02*
X82376256Y-117521150D01*
X82376256Y-117521150D02*
X82423875Y-117568769D01*
X82423875Y-117568769D02*
X82471494Y-117664007D01*
X82471494Y-117664007D02*
X82519113Y-117854483D01*
X82519113Y-117854483D02*
X82519113Y-118092578D01*
X82519113Y-118092578D02*
X82471494Y-118283054D01*
X82471494Y-118283054D02*
X82423875Y-118378292D01*
X82423875Y-118378292D02*
X82376256Y-118425911D01*
X82376256Y-118425911D02*
X82281018Y-118473530D01*
X82281018Y-118473530D02*
X82185780Y-118473530D01*
X82185780Y-118473530D02*
X82090542Y-118425911D01*
X82090542Y-118425911D02*
X82042923Y-118378292D01*
X82042923Y-118378292D02*
X81995304Y-118283054D01*
X81995304Y-118283054D02*
X81947685Y-118092578D01*
X81947685Y-118092578D02*
X81947685Y-117854483D01*
X81947685Y-117854483D02*
X81995304Y-117664007D01*
X81995304Y-117664007D02*
X82042923Y-117568769D01*
X82042923Y-117568769D02*
X82090542Y-117521150D01*
X82090542Y-117521150D02*
X82185780Y-117473530D01*
D10*
%TO.C,C5*%
X63820913Y-116773862D02*
X63773294Y-116821481D01*
X63773294Y-116821481D02*
X63630437Y-116869100D01*
X63630437Y-116869100D02*
X63535199Y-116869100D01*
X63535199Y-116869100D02*
X63392342Y-116821481D01*
X63392342Y-116821481D02*
X63297104Y-116726243D01*
X63297104Y-116726243D02*
X63249485Y-116631005D01*
X63249485Y-116631005D02*
X63201866Y-116440529D01*
X63201866Y-116440529D02*
X63201866Y-116297672D01*
X63201866Y-116297672D02*
X63249485Y-116107196D01*
X63249485Y-116107196D02*
X63297104Y-116011958D01*
X63297104Y-116011958D02*
X63392342Y-115916720D01*
X63392342Y-115916720D02*
X63535199Y-115869100D01*
X63535199Y-115869100D02*
X63630437Y-115869100D01*
X63630437Y-115869100D02*
X63773294Y-115916720D01*
X63773294Y-115916720D02*
X63820913Y-115964339D01*
X64725675Y-115869100D02*
X64249485Y-115869100D01*
X64249485Y-115869100D02*
X64201866Y-116345291D01*
X64201866Y-116345291D02*
X64249485Y-116297672D01*
X64249485Y-116297672D02*
X64344723Y-116250053D01*
X64344723Y-116250053D02*
X64582818Y-116250053D01*
X64582818Y-116250053D02*
X64678056Y-116297672D01*
X64678056Y-116297672D02*
X64725675Y-116345291D01*
X64725675Y-116345291D02*
X64773294Y-116440529D01*
X64773294Y-116440529D02*
X64773294Y-116678624D01*
X64773294Y-116678624D02*
X64725675Y-116773862D01*
X64725675Y-116773862D02*
X64678056Y-116821481D01*
X64678056Y-116821481D02*
X64582818Y-116869100D01*
X64582818Y-116869100D02*
X64344723Y-116869100D01*
X64344723Y-116869100D02*
X64249485Y-116821481D01*
X64249485Y-116821481D02*
X64201866Y-116773862D01*
%TO.C,C11*%
X101895326Y-135830614D02*
X101847707Y-135878233D01*
X101847707Y-135878233D02*
X101704850Y-135925852D01*
X101704850Y-135925852D02*
X101609612Y-135925852D01*
X101609612Y-135925852D02*
X101466755Y-135878233D01*
X101466755Y-135878233D02*
X101371517Y-135782995D01*
X101371517Y-135782995D02*
X101323898Y-135687757D01*
X101323898Y-135687757D02*
X101276279Y-135497281D01*
X101276279Y-135497281D02*
X101276279Y-135354424D01*
X101276279Y-135354424D02*
X101323898Y-135163948D01*
X101323898Y-135163948D02*
X101371517Y-135068710D01*
X101371517Y-135068710D02*
X101466755Y-134973472D01*
X101466755Y-134973472D02*
X101609612Y-134925852D01*
X101609612Y-134925852D02*
X101704850Y-134925852D01*
X101704850Y-134925852D02*
X101847707Y-134973472D01*
X101847707Y-134973472D02*
X101895326Y-135021091D01*
X102847707Y-135925852D02*
X102276279Y-135925852D01*
X102561993Y-135925852D02*
X102561993Y-134925852D01*
X102561993Y-134925852D02*
X102466755Y-135068710D01*
X102466755Y-135068710D02*
X102371517Y-135163948D01*
X102371517Y-135163948D02*
X102276279Y-135211567D01*
X103800088Y-135925852D02*
X103228660Y-135925852D01*
X103514374Y-135925852D02*
X103514374Y-134925852D01*
X103514374Y-134925852D02*
X103419136Y-135068710D01*
X103419136Y-135068710D02*
X103323898Y-135163948D01*
X103323898Y-135163948D02*
X103228660Y-135211567D01*
%TO.C,C13*%
X63865592Y-154871782D02*
X63817973Y-154919401D01*
X63817973Y-154919401D02*
X63675116Y-154967020D01*
X63675116Y-154967020D02*
X63579878Y-154967020D01*
X63579878Y-154967020D02*
X63437021Y-154919401D01*
X63437021Y-154919401D02*
X63341783Y-154824163D01*
X63341783Y-154824163D02*
X63294164Y-154728925D01*
X63294164Y-154728925D02*
X63246545Y-154538449D01*
X63246545Y-154538449D02*
X63246545Y-154395592D01*
X63246545Y-154395592D02*
X63294164Y-154205116D01*
X63294164Y-154205116D02*
X63341783Y-154109878D01*
X63341783Y-154109878D02*
X63437021Y-154014640D01*
X63437021Y-154014640D02*
X63579878Y-153967020D01*
X63579878Y-153967020D02*
X63675116Y-153967020D01*
X63675116Y-153967020D02*
X63817973Y-154014640D01*
X63817973Y-154014640D02*
X63865592Y-154062259D01*
X64817973Y-154967020D02*
X64246545Y-154967020D01*
X64532259Y-154967020D02*
X64532259Y-153967020D01*
X64532259Y-153967020D02*
X64437021Y-154109878D01*
X64437021Y-154109878D02*
X64341783Y-154205116D01*
X64341783Y-154205116D02*
X64246545Y-154252735D01*
X65151307Y-153967020D02*
X65770354Y-153967020D01*
X65770354Y-153967020D02*
X65437021Y-154347973D01*
X65437021Y-154347973D02*
X65579878Y-154347973D01*
X65579878Y-154347973D02*
X65675116Y-154395592D01*
X65675116Y-154395592D02*
X65722735Y-154443211D01*
X65722735Y-154443211D02*
X65770354Y-154538449D01*
X65770354Y-154538449D02*
X65770354Y-154776544D01*
X65770354Y-154776544D02*
X65722735Y-154871782D01*
X65722735Y-154871782D02*
X65675116Y-154919401D01*
X65675116Y-154919401D02*
X65579878Y-154967020D01*
X65579878Y-154967020D02*
X65294164Y-154967020D01*
X65294164Y-154967020D02*
X65198926Y-154919401D01*
X65198926Y-154919401D02*
X65151307Y-154871782D01*
D11*
%TO.C,KSW11*%
X96997685Y-118473530D02*
X96997685Y-117473530D01*
X97569113Y-118473530D02*
X97140542Y-117902102D01*
X97569113Y-117473530D02*
X96997685Y-118044959D01*
X97950066Y-118425911D02*
X98092923Y-118473530D01*
X98092923Y-118473530D02*
X98331018Y-118473530D01*
X98331018Y-118473530D02*
X98426256Y-118425911D01*
X98426256Y-118425911D02*
X98473875Y-118378292D01*
X98473875Y-118378292D02*
X98521494Y-118283054D01*
X98521494Y-118283054D02*
X98521494Y-118187816D01*
X98521494Y-118187816D02*
X98473875Y-118092578D01*
X98473875Y-118092578D02*
X98426256Y-118044959D01*
X98426256Y-118044959D02*
X98331018Y-117997340D01*
X98331018Y-117997340D02*
X98140542Y-117949721D01*
X98140542Y-117949721D02*
X98045304Y-117902102D01*
X98045304Y-117902102D02*
X97997685Y-117854483D01*
X97997685Y-117854483D02*
X97950066Y-117759245D01*
X97950066Y-117759245D02*
X97950066Y-117664007D01*
X97950066Y-117664007D02*
X97997685Y-117568769D01*
X97997685Y-117568769D02*
X98045304Y-117521150D01*
X98045304Y-117521150D02*
X98140542Y-117473530D01*
X98140542Y-117473530D02*
X98378637Y-117473530D01*
X98378637Y-117473530D02*
X98521494Y-117521150D01*
X98854828Y-117473530D02*
X99092923Y-118473530D01*
X99092923Y-118473530D02*
X99283399Y-117759245D01*
X99283399Y-117759245D02*
X99473875Y-118473530D01*
X99473875Y-118473530D02*
X99711971Y-117473530D01*
X100616732Y-118473530D02*
X100045304Y-118473530D01*
X100331018Y-118473530D02*
X100331018Y-117473530D01*
X100331018Y-117473530D02*
X100235780Y-117616388D01*
X100235780Y-117616388D02*
X100140542Y-117711626D01*
X100140542Y-117711626D02*
X100045304Y-117759245D01*
X101569113Y-118473530D02*
X100997685Y-118473530D01*
X101283399Y-118473530D02*
X101283399Y-117473530D01*
X101283399Y-117473530D02*
X101188161Y-117616388D01*
X101188161Y-117616388D02*
X101092923Y-117711626D01*
X101092923Y-117711626D02*
X100997685Y-117759245D01*
D10*
%TO.C,C7*%
X101925033Y-116780630D02*
X101877414Y-116828249D01*
X101877414Y-116828249D02*
X101734557Y-116875868D01*
X101734557Y-116875868D02*
X101639319Y-116875868D01*
X101639319Y-116875868D02*
X101496462Y-116828249D01*
X101496462Y-116828249D02*
X101401224Y-116733011D01*
X101401224Y-116733011D02*
X101353605Y-116637773D01*
X101353605Y-116637773D02*
X101305986Y-116447297D01*
X101305986Y-116447297D02*
X101305986Y-116304440D01*
X101305986Y-116304440D02*
X101353605Y-116113964D01*
X101353605Y-116113964D02*
X101401224Y-116018726D01*
X101401224Y-116018726D02*
X101496462Y-115923488D01*
X101496462Y-115923488D02*
X101639319Y-115875868D01*
X101639319Y-115875868D02*
X101734557Y-115875868D01*
X101734557Y-115875868D02*
X101877414Y-115923488D01*
X101877414Y-115923488D02*
X101925033Y-115971107D01*
X102258367Y-115875868D02*
X102925033Y-115875868D01*
X102925033Y-115875868D02*
X102496462Y-116875868D01*
%TO.C,C10*%
X82840142Y-135822822D02*
X82792523Y-135870441D01*
X82792523Y-135870441D02*
X82649666Y-135918060D01*
X82649666Y-135918060D02*
X82554428Y-135918060D01*
X82554428Y-135918060D02*
X82411571Y-135870441D01*
X82411571Y-135870441D02*
X82316333Y-135775203D01*
X82316333Y-135775203D02*
X82268714Y-135679965D01*
X82268714Y-135679965D02*
X82221095Y-135489489D01*
X82221095Y-135489489D02*
X82221095Y-135346632D01*
X82221095Y-135346632D02*
X82268714Y-135156156D01*
X82268714Y-135156156D02*
X82316333Y-135060918D01*
X82316333Y-135060918D02*
X82411571Y-134965680D01*
X82411571Y-134965680D02*
X82554428Y-134918060D01*
X82554428Y-134918060D02*
X82649666Y-134918060D01*
X82649666Y-134918060D02*
X82792523Y-134965680D01*
X82792523Y-134965680D02*
X82840142Y-135013299D01*
X83792523Y-135918060D02*
X83221095Y-135918060D01*
X83506809Y-135918060D02*
X83506809Y-134918060D01*
X83506809Y-134918060D02*
X83411571Y-135060918D01*
X83411571Y-135060918D02*
X83316333Y-135156156D01*
X83316333Y-135156156D02*
X83221095Y-135203775D01*
X84411571Y-134918060D02*
X84506809Y-134918060D01*
X84506809Y-134918060D02*
X84602047Y-134965680D01*
X84602047Y-134965680D02*
X84649666Y-135013299D01*
X84649666Y-135013299D02*
X84697285Y-135108537D01*
X84697285Y-135108537D02*
X84744904Y-135299013D01*
X84744904Y-135299013D02*
X84744904Y-135537108D01*
X84744904Y-135537108D02*
X84697285Y-135727584D01*
X84697285Y-135727584D02*
X84649666Y-135822822D01*
X84649666Y-135822822D02*
X84602047Y-135870441D01*
X84602047Y-135870441D02*
X84506809Y-135918060D01*
X84506809Y-135918060D02*
X84411571Y-135918060D01*
X84411571Y-135918060D02*
X84316333Y-135870441D01*
X84316333Y-135870441D02*
X84268714Y-135822822D01*
X84268714Y-135822822D02*
X84221095Y-135727584D01*
X84221095Y-135727584D02*
X84173476Y-135537108D01*
X84173476Y-135537108D02*
X84173476Y-135299013D01*
X84173476Y-135299013D02*
X84221095Y-135108537D01*
X84221095Y-135108537D02*
X84268714Y-135013299D01*
X84268714Y-135013299D02*
X84316333Y-134965680D01*
X84316333Y-134965680D02*
X84411571Y-134918060D01*
D11*
%TO.C,KSW8*%
X116523876Y-99423530D02*
X116523876Y-98423530D01*
X117095304Y-99423530D02*
X116666733Y-98852102D01*
X117095304Y-98423530D02*
X116523876Y-98994959D01*
X117476257Y-99375911D02*
X117619114Y-99423530D01*
X117619114Y-99423530D02*
X117857209Y-99423530D01*
X117857209Y-99423530D02*
X117952447Y-99375911D01*
X117952447Y-99375911D02*
X118000066Y-99328292D01*
X118000066Y-99328292D02*
X118047685Y-99233054D01*
X118047685Y-99233054D02*
X118047685Y-99137816D01*
X118047685Y-99137816D02*
X118000066Y-99042578D01*
X118000066Y-99042578D02*
X117952447Y-98994959D01*
X117952447Y-98994959D02*
X117857209Y-98947340D01*
X117857209Y-98947340D02*
X117666733Y-98899721D01*
X117666733Y-98899721D02*
X117571495Y-98852102D01*
X117571495Y-98852102D02*
X117523876Y-98804483D01*
X117523876Y-98804483D02*
X117476257Y-98709245D01*
X117476257Y-98709245D02*
X117476257Y-98614007D01*
X117476257Y-98614007D02*
X117523876Y-98518769D01*
X117523876Y-98518769D02*
X117571495Y-98471150D01*
X117571495Y-98471150D02*
X117666733Y-98423530D01*
X117666733Y-98423530D02*
X117904828Y-98423530D01*
X117904828Y-98423530D02*
X118047685Y-98471150D01*
X118381019Y-98423530D02*
X118619114Y-99423530D01*
X118619114Y-99423530D02*
X118809590Y-98709245D01*
X118809590Y-98709245D02*
X119000066Y-99423530D01*
X119000066Y-99423530D02*
X119238162Y-98423530D01*
X119761971Y-98852102D02*
X119666733Y-98804483D01*
X119666733Y-98804483D02*
X119619114Y-98756864D01*
X119619114Y-98756864D02*
X119571495Y-98661626D01*
X119571495Y-98661626D02*
X119571495Y-98614007D01*
X119571495Y-98614007D02*
X119619114Y-98518769D01*
X119619114Y-98518769D02*
X119666733Y-98471150D01*
X119666733Y-98471150D02*
X119761971Y-98423530D01*
X119761971Y-98423530D02*
X119952447Y-98423530D01*
X119952447Y-98423530D02*
X120047685Y-98471150D01*
X120047685Y-98471150D02*
X120095304Y-98518769D01*
X120095304Y-98518769D02*
X120142923Y-98614007D01*
X120142923Y-98614007D02*
X120142923Y-98661626D01*
X120142923Y-98661626D02*
X120095304Y-98756864D01*
X120095304Y-98756864D02*
X120047685Y-98804483D01*
X120047685Y-98804483D02*
X119952447Y-98852102D01*
X119952447Y-98852102D02*
X119761971Y-98852102D01*
X119761971Y-98852102D02*
X119666733Y-98899721D01*
X119666733Y-98899721D02*
X119619114Y-98947340D01*
X119619114Y-98947340D02*
X119571495Y-99042578D01*
X119571495Y-99042578D02*
X119571495Y-99233054D01*
X119571495Y-99233054D02*
X119619114Y-99328292D01*
X119619114Y-99328292D02*
X119666733Y-99375911D01*
X119666733Y-99375911D02*
X119761971Y-99423530D01*
X119761971Y-99423530D02*
X119952447Y-99423530D01*
X119952447Y-99423530D02*
X120047685Y-99375911D01*
X120047685Y-99375911D02*
X120095304Y-99328292D01*
X120095304Y-99328292D02*
X120142923Y-99233054D01*
X120142923Y-99233054D02*
X120142923Y-99042578D01*
X120142923Y-99042578D02*
X120095304Y-98947340D01*
X120095304Y-98947340D02*
X120047685Y-98899721D01*
X120047685Y-98899721D02*
X119952447Y-98852102D01*
%TO.C,KSW13*%
X58897685Y-137523530D02*
X58897685Y-136523530D01*
X59469113Y-137523530D02*
X59040542Y-136952102D01*
X59469113Y-136523530D02*
X58897685Y-137094959D01*
X59850066Y-137475911D02*
X59992923Y-137523530D01*
X59992923Y-137523530D02*
X60231018Y-137523530D01*
X60231018Y-137523530D02*
X60326256Y-137475911D01*
X60326256Y-137475911D02*
X60373875Y-137428292D01*
X60373875Y-137428292D02*
X60421494Y-137333054D01*
X60421494Y-137333054D02*
X60421494Y-137237816D01*
X60421494Y-137237816D02*
X60373875Y-137142578D01*
X60373875Y-137142578D02*
X60326256Y-137094959D01*
X60326256Y-137094959D02*
X60231018Y-137047340D01*
X60231018Y-137047340D02*
X60040542Y-136999721D01*
X60040542Y-136999721D02*
X59945304Y-136952102D01*
X59945304Y-136952102D02*
X59897685Y-136904483D01*
X59897685Y-136904483D02*
X59850066Y-136809245D01*
X59850066Y-136809245D02*
X59850066Y-136714007D01*
X59850066Y-136714007D02*
X59897685Y-136618769D01*
X59897685Y-136618769D02*
X59945304Y-136571150D01*
X59945304Y-136571150D02*
X60040542Y-136523530D01*
X60040542Y-136523530D02*
X60278637Y-136523530D01*
X60278637Y-136523530D02*
X60421494Y-136571150D01*
X60754828Y-136523530D02*
X60992923Y-137523530D01*
X60992923Y-137523530D02*
X61183399Y-136809245D01*
X61183399Y-136809245D02*
X61373875Y-137523530D01*
X61373875Y-137523530D02*
X61611971Y-136523530D01*
X62516732Y-137523530D02*
X61945304Y-137523530D01*
X62231018Y-137523530D02*
X62231018Y-136523530D01*
X62231018Y-136523530D02*
X62135780Y-136666388D01*
X62135780Y-136666388D02*
X62040542Y-136761626D01*
X62040542Y-136761626D02*
X61945304Y-136809245D01*
X62850066Y-136523530D02*
X63469113Y-136523530D01*
X63469113Y-136523530D02*
X63135780Y-136904483D01*
X63135780Y-136904483D02*
X63278637Y-136904483D01*
X63278637Y-136904483D02*
X63373875Y-136952102D01*
X63373875Y-136952102D02*
X63421494Y-136999721D01*
X63421494Y-136999721D02*
X63469113Y-137094959D01*
X63469113Y-137094959D02*
X63469113Y-137333054D01*
X63469113Y-137333054D02*
X63421494Y-137428292D01*
X63421494Y-137428292D02*
X63373875Y-137475911D01*
X63373875Y-137475911D02*
X63278637Y-137523530D01*
X63278637Y-137523530D02*
X62992923Y-137523530D01*
X62992923Y-137523530D02*
X62897685Y-137475911D01*
X62897685Y-137475911D02*
X62850066Y-137428292D01*
%TO.C,KSW4*%
X116523876Y-80373530D02*
X116523876Y-79373530D01*
X117095304Y-80373530D02*
X116666733Y-79802102D01*
X117095304Y-79373530D02*
X116523876Y-79944959D01*
X117476257Y-80325911D02*
X117619114Y-80373530D01*
X117619114Y-80373530D02*
X117857209Y-80373530D01*
X117857209Y-80373530D02*
X117952447Y-80325911D01*
X117952447Y-80325911D02*
X118000066Y-80278292D01*
X118000066Y-80278292D02*
X118047685Y-80183054D01*
X118047685Y-80183054D02*
X118047685Y-80087816D01*
X118047685Y-80087816D02*
X118000066Y-79992578D01*
X118000066Y-79992578D02*
X117952447Y-79944959D01*
X117952447Y-79944959D02*
X117857209Y-79897340D01*
X117857209Y-79897340D02*
X117666733Y-79849721D01*
X117666733Y-79849721D02*
X117571495Y-79802102D01*
X117571495Y-79802102D02*
X117523876Y-79754483D01*
X117523876Y-79754483D02*
X117476257Y-79659245D01*
X117476257Y-79659245D02*
X117476257Y-79564007D01*
X117476257Y-79564007D02*
X117523876Y-79468769D01*
X117523876Y-79468769D02*
X117571495Y-79421150D01*
X117571495Y-79421150D02*
X117666733Y-79373530D01*
X117666733Y-79373530D02*
X117904828Y-79373530D01*
X117904828Y-79373530D02*
X118047685Y-79421150D01*
X118381019Y-79373530D02*
X118619114Y-80373530D01*
X118619114Y-80373530D02*
X118809590Y-79659245D01*
X118809590Y-79659245D02*
X119000066Y-80373530D01*
X119000066Y-80373530D02*
X119238162Y-79373530D01*
X120047685Y-79706864D02*
X120047685Y-80373530D01*
X119809590Y-79325911D02*
X119571495Y-80040197D01*
X119571495Y-80040197D02*
X120190542Y-80040197D01*
D12*
%TO.C,C14*%
X79948748Y-153421300D02*
X80471252Y-153421300D01*
X79948748Y-154891300D02*
X80471252Y-154891300D01*
D10*
%TO.C,KSW9*%
X54159590Y-120606150D02*
X54159590Y-119606150D01*
X54159590Y-133606150D02*
X54159590Y-132606150D01*
X54159590Y-133606150D02*
X55159590Y-133606150D01*
X55159590Y-119606150D02*
X54159590Y-119606150D01*
D11*
X62210390Y-133686150D02*
X63210390Y-133686150D01*
X63210390Y-133686150D02*
X63210390Y-132686150D01*
D10*
X67159590Y-133606150D02*
X68159590Y-133606150D01*
X68159590Y-119606150D02*
X67159590Y-119606150D01*
X68159590Y-119606150D02*
X68159590Y-120606150D01*
X68159590Y-132606150D02*
X68159590Y-133606150D01*
D12*
%TO.C,C8*%
X118048748Y-115321300D02*
X118571252Y-115321300D01*
X118048748Y-116791300D02*
X118571252Y-116791300D01*
%TO.C,C3*%
X98998748Y-96271300D02*
X99521252Y-96271300D01*
X98998748Y-97741300D02*
X99521252Y-97741300D01*
D10*
%TO.C,KSW16*%
X111309590Y-139656150D02*
X111309590Y-138656150D01*
X111309590Y-152656150D02*
X111309590Y-151656150D01*
X111309590Y-152656150D02*
X112309590Y-152656150D01*
X112309590Y-138656150D02*
X111309590Y-138656150D01*
D11*
X119360390Y-152736150D02*
X120360390Y-152736150D01*
X120360390Y-152736150D02*
X120360390Y-151736150D01*
D10*
X124309590Y-152656150D02*
X125309590Y-152656150D01*
X125309590Y-138656150D02*
X124309590Y-138656150D01*
X125309590Y-138656150D02*
X125309590Y-139656150D01*
X125309590Y-151656150D02*
X125309590Y-152656150D01*
D12*
%TO.C,C4*%
X118048748Y-96271300D02*
X118571252Y-96271300D01*
X118048748Y-97741300D02*
X118571252Y-97741300D01*
D10*
%TO.C,KSW7*%
X92259590Y-101556150D02*
X92259590Y-100556150D01*
X92259590Y-114556150D02*
X92259590Y-113556150D01*
X92259590Y-114556150D02*
X93259590Y-114556150D01*
X93259590Y-100556150D02*
X92259590Y-100556150D01*
D11*
X100310390Y-114636150D02*
X101310390Y-114636150D01*
X101310390Y-114636150D02*
X101310390Y-113636150D01*
D10*
X105259590Y-114556150D02*
X106259590Y-114556150D01*
X106259590Y-100556150D02*
X105259590Y-100556150D01*
X106259590Y-100556150D02*
X106259590Y-101556150D01*
X106259590Y-113556150D02*
X106259590Y-114556150D01*
D12*
%TO.C,C6*%
X79948748Y-115321300D02*
X80471252Y-115321300D01*
X79948748Y-116791300D02*
X80471252Y-116791300D01*
D10*
%TO.C,KSW3*%
X92259590Y-82506150D02*
X92259590Y-81506150D01*
X92259590Y-95506150D02*
X92259590Y-94506150D01*
X92259590Y-95506150D02*
X93259590Y-95506150D01*
X93259590Y-81506150D02*
X92259590Y-81506150D01*
D11*
X100310390Y-95586150D02*
X101310390Y-95586150D01*
X101310390Y-95586150D02*
X101310390Y-94586150D01*
D10*
X105259590Y-95506150D02*
X106259590Y-95506150D01*
X106259590Y-81506150D02*
X105259590Y-81506150D01*
X106259590Y-81506150D02*
X106259590Y-82506150D01*
X106259590Y-94506150D02*
X106259590Y-95506150D01*
D12*
%TO.C,C2*%
X79948748Y-96271300D02*
X80471252Y-96271300D01*
X79948748Y-97741300D02*
X80471252Y-97741300D01*
D10*
%TO.C,KSW15*%
X92259590Y-139656150D02*
X92259590Y-138656150D01*
X92259590Y-152656150D02*
X92259590Y-151656150D01*
X92259590Y-152656150D02*
X93259590Y-152656150D01*
X93259590Y-138656150D02*
X92259590Y-138656150D01*
D11*
X100310390Y-152736150D02*
X101310390Y-152736150D01*
X101310390Y-152736150D02*
X101310390Y-151736150D01*
D10*
X105259590Y-152656150D02*
X106259590Y-152656150D01*
X106259590Y-138656150D02*
X105259590Y-138656150D01*
X106259590Y-138656150D02*
X106259590Y-139656150D01*
X106259590Y-151656150D02*
X106259590Y-152656150D01*
D12*
%TO.C,C1*%
X60898748Y-96271300D02*
X61421252Y-96271300D01*
X60898748Y-97741300D02*
X61421252Y-97741300D01*
D13*
%TO.C,J2*%
X115040000Y-51820000D02*
X107420000Y-51820000D01*
X115040000Y-46740000D02*
X115040000Y-51820000D01*
D14*
X112480000Y-46730000D02*
X112480000Y-45930000D01*
X112480000Y-45930000D02*
X109930000Y-45930000D01*
X109930000Y-45930000D02*
X109930000Y-46730000D01*
D13*
X107420000Y-51820000D02*
X107420000Y-46740000D01*
X107420000Y-46740000D02*
X115040000Y-46740000D01*
D12*
%TO.C,C16*%
X118048748Y-153421300D02*
X118571252Y-153421300D01*
X118048748Y-154891300D02*
X118571252Y-154891300D01*
D10*
%TO.C,KSW6*%
X73209590Y-101556150D02*
X73209590Y-100556150D01*
X73209590Y-114556150D02*
X73209590Y-113556150D01*
X73209590Y-114556150D02*
X74209590Y-114556150D01*
X74209590Y-100556150D02*
X73209590Y-100556150D01*
D11*
X81260390Y-114636150D02*
X82260390Y-114636150D01*
X82260390Y-114636150D02*
X82260390Y-113636150D01*
D10*
X86209590Y-114556150D02*
X87209590Y-114556150D01*
X87209590Y-100556150D02*
X86209590Y-100556150D01*
X87209590Y-100556150D02*
X87209590Y-101556150D01*
X87209590Y-113556150D02*
X87209590Y-114556150D01*
%TO.C,KSW14*%
X73209590Y-139656150D02*
X73209590Y-138656150D01*
X73209590Y-152656150D02*
X73209590Y-151656150D01*
X73209590Y-152656150D02*
X74209590Y-152656150D01*
X74209590Y-138656150D02*
X73209590Y-138656150D01*
D11*
X81260390Y-152736150D02*
X82260390Y-152736150D01*
X82260390Y-152736150D02*
X82260390Y-151736150D01*
D10*
X86209590Y-152656150D02*
X87209590Y-152656150D01*
X87209590Y-138656150D02*
X86209590Y-138656150D01*
X87209590Y-138656150D02*
X87209590Y-139656150D01*
X87209590Y-151656150D02*
X87209590Y-152656150D01*
%TO.C,KSW1*%
X54159590Y-82506150D02*
X54159590Y-81506150D01*
X54159590Y-95506150D02*
X54159590Y-94506150D01*
X54159590Y-95506150D02*
X55159590Y-95506150D01*
X55159590Y-81506150D02*
X54159590Y-81506150D01*
D11*
X62210390Y-95586150D02*
X63210390Y-95586150D01*
X63210390Y-95586150D02*
X63210390Y-94586150D01*
D10*
X67159590Y-95506150D02*
X68159590Y-95506150D01*
X68159590Y-81506150D02*
X67159590Y-81506150D01*
X68159590Y-81506150D02*
X68159590Y-82506150D01*
X68159590Y-94506150D02*
X68159590Y-95506150D01*
%TO.C,KSW2*%
X73209590Y-82506150D02*
X73209590Y-81506150D01*
X73209590Y-95506150D02*
X73209590Y-94506150D01*
X73209590Y-95506150D02*
X74209590Y-95506150D01*
X74209590Y-81506150D02*
X73209590Y-81506150D01*
D11*
X81260390Y-95586150D02*
X82260390Y-95586150D01*
X82260390Y-95586150D02*
X82260390Y-94586150D01*
D10*
X86209590Y-95506150D02*
X87209590Y-95506150D01*
X87209590Y-81506150D02*
X86209590Y-81506150D01*
X87209590Y-81506150D02*
X87209590Y-82506150D01*
X87209590Y-94506150D02*
X87209590Y-95506150D01*
%TO.C,KSW5*%
X54159590Y-101556150D02*
X54159590Y-100556150D01*
X54159590Y-114556150D02*
X54159590Y-113556150D01*
X54159590Y-114556150D02*
X55159590Y-114556150D01*
X55159590Y-100556150D02*
X54159590Y-100556150D01*
D11*
X62210390Y-114636150D02*
X63210390Y-114636150D01*
X63210390Y-114636150D02*
X63210390Y-113636150D01*
D10*
X67159590Y-114556150D02*
X68159590Y-114556150D01*
X68159590Y-100556150D02*
X67159590Y-100556150D01*
X68159590Y-100556150D02*
X68159590Y-101556150D01*
X68159590Y-113556150D02*
X68159590Y-114556150D01*
D12*
%TO.C,RSW1*%
X141459590Y-61656150D02*
X141459590Y-62256150D01*
X141159590Y-61956150D02*
X141459590Y-61656150D01*
X141459590Y-62256150D02*
X141159590Y-61956150D01*
X143659590Y-62756150D02*
X141159590Y-62756150D01*
X131059590Y-62756150D02*
X133859590Y-62756150D01*
X143659590Y-67556150D02*
X143659590Y-62756150D01*
X131059590Y-67656150D02*
X131059590Y-62756150D01*
X137359590Y-68956150D02*
X137359590Y-69956150D01*
X137859590Y-69456150D02*
X136859590Y-69456150D01*
X143659590Y-71256150D02*
X143659590Y-76156150D01*
X143659590Y-76156150D02*
X141059590Y-76156150D01*
X138659590Y-76156150D02*
X136059590Y-76156150D01*
X133659590Y-76156150D02*
X131059590Y-76156150D01*
X131059590Y-76156150D02*
X131059590Y-71256150D01*
X140359590Y-69456150D02*
G75*
G03*
X140359590Y-69456150I-3000000J0D01*
G01*
%TO.C,C15*%
X98998748Y-153421300D02*
X99521252Y-153421300D01*
X98998748Y-154891300D02*
X99521252Y-154891300D01*
D10*
%TO.C,KSW12*%
X111309590Y-120606150D02*
X111309590Y-119606150D01*
X111309590Y-133606150D02*
X111309590Y-132606150D01*
X111309590Y-133606150D02*
X112309590Y-133606150D01*
X112309590Y-119606150D02*
X111309590Y-119606150D01*
D11*
X119360390Y-133686150D02*
X120360390Y-133686150D01*
X120360390Y-133686150D02*
X120360390Y-132686150D01*
D10*
X124309590Y-133606150D02*
X125309590Y-133606150D01*
X125309590Y-119606150D02*
X124309590Y-119606150D01*
X125309590Y-119606150D02*
X125309590Y-120606150D01*
X125309590Y-132606150D02*
X125309590Y-133606150D01*
D12*
%TO.C,C12*%
X118048748Y-134371300D02*
X118571252Y-134371300D01*
X118048748Y-135841300D02*
X118571252Y-135841300D01*
%TO.C,C9*%
X60898748Y-134371300D02*
X61421252Y-134371300D01*
X60898748Y-135841300D02*
X61421252Y-135841300D01*
D10*
%TO.C,KSW10*%
X73209590Y-120606150D02*
X73209590Y-119606150D01*
X73209590Y-133606150D02*
X73209590Y-132606150D01*
X73209590Y-133606150D02*
X74209590Y-133606150D01*
X74209590Y-119606150D02*
X73209590Y-119606150D01*
D11*
X81260390Y-133686150D02*
X82260390Y-133686150D01*
X82260390Y-133686150D02*
X82260390Y-132686150D01*
D10*
X86209590Y-133606150D02*
X87209590Y-133606150D01*
X87209590Y-119606150D02*
X86209590Y-119606150D01*
X87209590Y-119606150D02*
X87209590Y-120606150D01*
X87209590Y-132606150D02*
X87209590Y-133606150D01*
D12*
%TO.C,C5*%
X60898748Y-115321300D02*
X61421252Y-115321300D01*
X60898748Y-116791300D02*
X61421252Y-116791300D01*
%TO.C,C11*%
X98998748Y-134371300D02*
X99521252Y-134371300D01*
X98998748Y-135841300D02*
X99521252Y-135841300D01*
%TO.C,C13*%
X60898748Y-153421300D02*
X61421252Y-153421300D01*
X60898748Y-154891300D02*
X61421252Y-154891300D01*
D10*
%TO.C,KSW11*%
X92259590Y-120606150D02*
X92259590Y-119606150D01*
X92259590Y-133606150D02*
X92259590Y-132606150D01*
X92259590Y-133606150D02*
X93259590Y-133606150D01*
X93259590Y-119606150D02*
X92259590Y-119606150D01*
D11*
X100310390Y-133686150D02*
X101310390Y-133686150D01*
X101310390Y-133686150D02*
X101310390Y-132686150D01*
D10*
X105259590Y-133606150D02*
X106259590Y-133606150D01*
X106259590Y-119606150D02*
X105259590Y-119606150D01*
X106259590Y-119606150D02*
X106259590Y-120606150D01*
X106259590Y-132606150D02*
X106259590Y-133606150D01*
D12*
%TO.C,C7*%
X98998748Y-115321300D02*
X99521252Y-115321300D01*
X98998748Y-116791300D02*
X99521252Y-116791300D01*
%TO.C,C10*%
X79948748Y-134371300D02*
X80471252Y-134371300D01*
X79948748Y-135841300D02*
X80471252Y-135841300D01*
D10*
%TO.C,KSW8*%
X111309590Y-101556150D02*
X111309590Y-100556150D01*
X111309590Y-114556150D02*
X111309590Y-113556150D01*
X111309590Y-114556150D02*
X112309590Y-114556150D01*
X112309590Y-100556150D02*
X111309590Y-100556150D01*
D11*
X119360390Y-114636150D02*
X120360390Y-114636150D01*
X120360390Y-114636150D02*
X120360390Y-113636150D01*
D10*
X124309590Y-114556150D02*
X125309590Y-114556150D01*
X125309590Y-100556150D02*
X124309590Y-100556150D01*
X125309590Y-100556150D02*
X125309590Y-101556150D01*
X125309590Y-113556150D02*
X125309590Y-114556150D01*
%TO.C,KSW13*%
X54159590Y-139656150D02*
X54159590Y-138656150D01*
X54159590Y-152656150D02*
X54159590Y-151656150D01*
X54159590Y-152656150D02*
X55159590Y-152656150D01*
X55159590Y-138656150D02*
X54159590Y-138656150D01*
D11*
X62210390Y-152736150D02*
X63210390Y-152736150D01*
X63210390Y-152736150D02*
X63210390Y-151736150D01*
D10*
X67159590Y-152656150D02*
X68159590Y-152656150D01*
X68159590Y-138656150D02*
X67159590Y-138656150D01*
X68159590Y-138656150D02*
X68159590Y-139656150D01*
X68159590Y-151656150D02*
X68159590Y-152656150D01*
%TO.C,KSW4*%
X111309590Y-82506150D02*
X111309590Y-81506150D01*
X111309590Y-95506150D02*
X111309590Y-94506150D01*
X111309590Y-95506150D02*
X112309590Y-95506150D01*
X112309590Y-81506150D02*
X111309590Y-81506150D01*
D11*
X119360390Y-95586150D02*
X120360390Y-95586150D01*
X120360390Y-95586150D02*
X120360390Y-94586150D01*
D10*
X124309590Y-95506150D02*
X125309590Y-95506150D01*
X125309590Y-81506150D02*
X124309590Y-81506150D01*
X125309590Y-81506150D02*
X125309590Y-82506150D01*
X125309590Y-94506150D02*
X125309590Y-95506150D01*
%TD*%
D15*
%TO.C,J2*%
X113769999Y-48009999D03*
D16*
X113770000Y-50550000D03*
X111230000Y-48010000D03*
X111230000Y-50550000D03*
X108690000Y-48010000D03*
X108690000Y-50550000D03*
%TD*%
M02*
