%TF.GenerationSoftware,KiCad,Pcbnew,(7.0.0)*%
%TF.CreationDate,2023-03-09T16:04:36-06:00*%
%TF.ProjectId,RB-Macro16,52422d4d-6163-4726-9f31-362e6b696361,rev?*%
%TF.SameCoordinates,Original*%
%TF.FileFunction,Soldermask,Top*%
%TF.FilePolarity,Negative*%
%FSLAX46Y46*%
G04 Gerber Fmt 4.6, Leading zero omitted, Abs format (unit mm)*
G04 Created by KiCad (PCBNEW (7.0.0)) date 2023-03-09 16:04:36*
%MOMM*%
%LPD*%
G01*
G04 APERTURE LIST*
G04 Aperture macros list*
%AMRoundRect*
0 Rectangle with rounded corners*
0 $1 Rounding radius*
0 $2 $3 $4 $5 $6 $7 $8 $9 X,Y pos of 4 corners*
0 Add a 4 corners polygon primitive as box body*
4,1,4,$2,$3,$4,$5,$6,$7,$8,$9,$2,$3,0*
0 Add four circle primitives for the rounded corners*
1,1,$1+$1,$2,$3*
1,1,$1+$1,$4,$5*
1,1,$1+$1,$6,$7*
1,1,$1+$1,$8,$9*
0 Add four rect primitives between the rounded corners*
20,1,$1+$1,$2,$3,$4,$5,0*
20,1,$1+$1,$4,$5,$6,$7,0*
20,1,$1+$1,$6,$7,$8,$9,0*
20,1,$1+$1,$8,$9,$2,$3,0*%
%AMHorizOval*
0 Thick line with rounded ends*
0 $1 width*
0 $2 $3 position (X,Y) of the first rounded end (center of the circle)*
0 $4 $5 position (X,Y) of the second rounded end (center of the circle)*
0 Add line between two ends*
20,1,$1,$2,$3,$4,$5,0*
0 Add two circle primitives to create the rounded ends*
1,1,$1,$2,$3*
1,1,$1,$4,$5*%
G04 Aperture macros list end*
%ADD10RoundRect,0.250000X-0.337500X-0.475000X0.337500X-0.475000X0.337500X0.475000X-0.337500X0.475000X0*%
%ADD11C,1.701800*%
%ADD12C,3.000000*%
%ADD13C,3.987800*%
%ADD14C,4.350000*%
%ADD15C,3.200000*%
%ADD16R,1.700000X1.700000*%
%ADD17C,1.700000*%
%ADD18R,2.000000X2.000000*%
%ADD19C,2.000000*%
%ADD20R,2.500000X3.000000*%
%ADD21C,1.600000*%
%ADD22HorizOval,1.600000X0.000000X0.000000X0.000000X0.000000X0*%
%ADD23HorizOval,1.600000X0.000000X0.000000X0.000000X0.000000X0*%
%ADD24O,1.600000X1.600000*%
%ADD25C,0.650000*%
%ADD26O,0.950000X0.650000*%
%ADD27O,0.800000X1.400000*%
G04 APERTURE END LIST*
D10*
%TO.C,C14*%
X79172500Y-154156300D03*
X81247500Y-154156300D03*
%TD*%
D11*
%TO.C,KSW9*%
X56079590Y-126606150D03*
D12*
X57349590Y-124066150D03*
D13*
X61159590Y-126606150D03*
D14*
X61210390Y-131686150D03*
D12*
X63699590Y-121526150D03*
D11*
X66239590Y-126606150D03*
%TD*%
D10*
%TO.C,C8*%
X117272500Y-116056300D03*
X119347500Y-116056300D03*
%TD*%
%TO.C,C3*%
X98222500Y-97006300D03*
X100297500Y-97006300D03*
%TD*%
D11*
%TO.C,KSW16*%
X113229590Y-145656150D03*
D12*
X114499590Y-143116150D03*
D13*
X118309590Y-145656150D03*
D14*
X118360390Y-150736150D03*
D12*
X120849590Y-140576150D03*
D11*
X123389590Y-145656150D03*
%TD*%
D15*
%TO.C,REF\u002A\u002A*%
X48000000Y-153000000D03*
%TD*%
D10*
%TO.C,C4*%
X117272500Y-97006300D03*
X119347500Y-97006300D03*
%TD*%
D11*
%TO.C,KSW7*%
X94179590Y-107556150D03*
D12*
X95449590Y-105016150D03*
D13*
X99259590Y-107556150D03*
D14*
X99310390Y-112636150D03*
D12*
X101799590Y-102476150D03*
D11*
X104339590Y-107556150D03*
%TD*%
D10*
%TO.C,C6*%
X79172500Y-116056300D03*
X81247500Y-116056300D03*
%TD*%
D11*
%TO.C,KSW3*%
X94179590Y-88506150D03*
D12*
X95449590Y-85966150D03*
D13*
X99259590Y-88506150D03*
D14*
X99310390Y-93586150D03*
D12*
X101799590Y-83426150D03*
D11*
X104339590Y-88506150D03*
%TD*%
D10*
%TO.C,C2*%
X79172500Y-97006300D03*
X81247500Y-97006300D03*
%TD*%
D11*
%TO.C,KSW15*%
X94179590Y-145656150D03*
D12*
X95449590Y-143116150D03*
D13*
X99259590Y-145656150D03*
D14*
X99310390Y-150736150D03*
D12*
X101799590Y-140576150D03*
D11*
X104339590Y-145656150D03*
%TD*%
D15*
%TO.C,REF\u002A\u002A*%
X142000000Y-153000000D03*
%TD*%
D10*
%TO.C,C1*%
X60122500Y-97006300D03*
X62197500Y-97006300D03*
%TD*%
D16*
%TO.C,J2*%
X113769999Y-48009999D03*
D17*
X113770000Y-50550000D03*
X111230000Y-48010000D03*
X111230000Y-50550000D03*
X108690000Y-48010000D03*
X108690000Y-50550000D03*
%TD*%
D10*
%TO.C,C16*%
X117272500Y-154156300D03*
X119347500Y-154156300D03*
%TD*%
D11*
%TO.C,KSW6*%
X75129590Y-107556150D03*
D12*
X76399590Y-105016150D03*
D13*
X80209590Y-107556150D03*
D14*
X80260390Y-112636150D03*
D12*
X82749590Y-102476150D03*
D11*
X85289590Y-107556150D03*
%TD*%
%TO.C,KSW14*%
X75129590Y-145656150D03*
D12*
X76399590Y-143116150D03*
D13*
X80209590Y-145656150D03*
D14*
X80260390Y-150736150D03*
D12*
X82749590Y-140576150D03*
D11*
X85289590Y-145656150D03*
%TD*%
%TO.C,KSW1*%
X56079590Y-88506150D03*
D12*
X57349590Y-85966150D03*
D13*
X61159590Y-88506150D03*
D14*
X61210390Y-93586150D03*
D12*
X63699590Y-83426150D03*
D11*
X66239590Y-88506150D03*
%TD*%
%TO.C,KSW2*%
X75129590Y-88506150D03*
D12*
X76399590Y-85966150D03*
D13*
X80209590Y-88506150D03*
D14*
X80260390Y-93586150D03*
D12*
X82749590Y-83426150D03*
D11*
X85289590Y-88506150D03*
%TD*%
%TO.C,KSW5*%
X56079590Y-107556150D03*
D12*
X57349590Y-105016150D03*
D13*
X61159590Y-107556150D03*
D14*
X61210390Y-112636150D03*
D12*
X63699590Y-102476150D03*
D11*
X66239590Y-107556150D03*
%TD*%
D18*
%TO.C,RSW1*%
X139859589Y-61956149D03*
D19*
X134859590Y-61956150D03*
X137359590Y-61956150D03*
D20*
X142959589Y-69456149D03*
X131759589Y-69456149D03*
D19*
X139859590Y-76456150D03*
X134859590Y-76456150D03*
%TD*%
D10*
%TO.C,C15*%
X98222500Y-154156300D03*
X100297500Y-154156300D03*
%TD*%
D11*
%TO.C,KSW12*%
X113229590Y-126606150D03*
D12*
X114499590Y-124066150D03*
D13*
X118309590Y-126606150D03*
D14*
X118360390Y-131686150D03*
D12*
X120849590Y-121526150D03*
D11*
X123389590Y-126606150D03*
%TD*%
D10*
%TO.C,C12*%
X117272500Y-135106300D03*
X119347500Y-135106300D03*
%TD*%
%TO.C,C9*%
X60122500Y-135106300D03*
X62197500Y-135106300D03*
%TD*%
D11*
%TO.C,KSW10*%
X75129590Y-126606150D03*
D12*
X76399590Y-124066150D03*
D13*
X80209590Y-126606150D03*
D14*
X80260390Y-131686150D03*
D12*
X82749590Y-121526150D03*
D11*
X85289590Y-126606150D03*
%TD*%
D15*
%TO.C,REF\u002A\u002A*%
X142000000Y-43000000D03*
%TD*%
%TO.C,REF\u002A\u002A*%
X48000000Y-43000000D03*
%TD*%
D10*
%TO.C,C5*%
X60122500Y-116056300D03*
X62197500Y-116056300D03*
%TD*%
%TO.C,C11*%
X98222500Y-135106300D03*
X100297500Y-135106300D03*
%TD*%
%TO.C,C13*%
X60122500Y-154156300D03*
X62197500Y-154156300D03*
%TD*%
D11*
%TO.C,KSW11*%
X94179590Y-126606150D03*
D12*
X95449590Y-124066150D03*
D13*
X99259590Y-126606150D03*
D14*
X99310390Y-131686150D03*
D12*
X101799590Y-121526150D03*
D11*
X104339590Y-126606150D03*
%TD*%
D10*
%TO.C,C7*%
X98222500Y-116056300D03*
X100297500Y-116056300D03*
%TD*%
%TO.C,C10*%
X79172500Y-135106300D03*
X81247500Y-135106300D03*
%TD*%
D11*
%TO.C,KSW8*%
X113229590Y-107556150D03*
D12*
X114499590Y-105016150D03*
D13*
X118309590Y-107556150D03*
D14*
X118360390Y-112636150D03*
D12*
X120849590Y-102476150D03*
D11*
X123389590Y-107556150D03*
%TD*%
%TO.C,KSW13*%
X56079590Y-145656150D03*
D12*
X57349590Y-143116150D03*
D13*
X61159590Y-145656150D03*
D14*
X61210390Y-150736150D03*
D12*
X63699590Y-140576150D03*
D11*
X66239590Y-145656150D03*
%TD*%
%TO.C,KSW4*%
X113229590Y-88506150D03*
D12*
X114499590Y-85966150D03*
D13*
X118309590Y-88506150D03*
D14*
X118360390Y-93586150D03*
D12*
X120849590Y-83426150D03*
D11*
X123389590Y-88506150D03*
%TD*%
D21*
%TO.C,R2*%
X72295923Y-63194077D03*
D22*
X77684076Y-57805922D03*
%TD*%
D21*
%TO.C,R4*%
X65295923Y-56114077D03*
D22*
X70684076Y-50725922D03*
%TD*%
D19*
%TO.C,SW1*%
X107990000Y-64300000D03*
X114490000Y-64300000D03*
X107990000Y-59800000D03*
X114490000Y-59800000D03*
%TD*%
D21*
%TO.C,R6*%
X95565923Y-46655923D03*
D23*
X100954076Y-52044076D03*
%TD*%
D21*
%TO.C,R3*%
X67525923Y-58374077D03*
D22*
X72914076Y-52985922D03*
%TD*%
D21*
%TO.C,R1*%
X114680000Y-56390000D03*
D24*
X107059999Y-56389999D03*
%TD*%
D25*
%TO.C,J1*%
X55159590Y-47566150D03*
D26*
X62359589Y-47566149D03*
D27*
X54269589Y-40366149D03*
X54629589Y-46316149D03*
X62889589Y-46316149D03*
X63249589Y-40366149D03*
%TD*%
D21*
%TO.C,R5*%
X97781846Y-44421846D03*
D23*
X103169999Y-49809999D03*
%TD*%
M02*
